<mxfile host="app.diagrams.net" modified="2021-05-23T11:41:40.940Z" agent="5.0 (Windows NT 10.0; Win64; x64) AppleWebKit/537.36 (KHTML, like Gecko) Chrome/90.0.4430.212 Safari/537.36" etag="k0J5tnmtCrU41OYVQEk-" version="14.6.13" type="github">
  <diagram id="XdC1j3IHL-RzZTJf8BNx" name="Page-1">
    <mxGraphModel dx="5569" dy="4133" grid="1" gridSize="10" guides="1" tooltips="1" connect="1" arrows="1" fold="1" page="1" pageScale="1" pageWidth="1169" pageHeight="827" math="0" shadow="0">
      <root>
        <mxCell id="0" />
        <mxCell id="1" parent="0" />
        <mxCell id="cXEcaTY2lwT7MXvua-dQ-148" value="Use Case Diagram" style="rounded=0;whiteSpace=wrap;html=1;shadow=0;verticalAlign=top;spacing=20;fontStyle=1;dashed=1;align=left;" vertex="1" parent="1">
          <mxGeometry x="-2270" y="110" width="740" height="970" as="geometry" />
        </mxCell>
        <mxCell id="cXEcaTY2lwT7MXvua-dQ-151" value="Wits Overflow" style="rounded=0;whiteSpace=wrap;html=1;shadow=0;align=center;verticalAlign=top;spacing=20;fontStyle=1" vertex="1" parent="1">
          <mxGeometry x="-2030" y="140" width="260" height="910" as="geometry" />
        </mxCell>
        <mxCell id="VUR_f_dKXdpQ3Um3fJ8c-2" value="Deployment Diagram (OLD)" style="rounded=0;whiteSpace=wrap;html=1;dashed=1;spacing=20;verticalAlign=top;align=left;fontStyle=1" parent="1" vertex="1">
          <mxGeometry x="40" y="60" width="740" height="470" as="geometry" />
        </mxCell>
        <mxCell id="VUR_f_dKXdpQ3Um3fJ8c-25" value="&amp;lt;&amp;lt;device&amp;gt;&amp;gt;&lt;br&gt;&lt;b&gt;Database Server&lt;/b&gt;" style="verticalAlign=top;align=center;shape=cube;size=10;direction=south;fontStyle=0;html=1;boundedLbl=1;spacingLeft=5;fillColor=#FFFFFF;" parent="1" vertex="1">
          <mxGeometry x="585" y="120" width="165" height="170" as="geometry" />
        </mxCell>
        <mxCell id="VUR_f_dKXdpQ3Um3fJ8c-14" value="" style="group" parent="1" vertex="1" connectable="0">
          <mxGeometry x="70" y="330" width="270" height="170" as="geometry" />
        </mxCell>
        <mxCell id="VUR_f_dKXdpQ3Um3fJ8c-6" value="&amp;lt;&amp;lt;device&amp;gt;&amp;gt;&lt;br&gt;&lt;b&gt;Personal Computer&lt;/b&gt;" style="verticalAlign=top;align=center;shape=cube;size=10;direction=south;fontStyle=0;html=1;boundedLbl=1;spacingLeft=5;fillColor=#FFFFFF;" parent="VUR_f_dKXdpQ3Um3fJ8c-14" vertex="1">
          <mxGeometry width="270" height="170" as="geometry" />
        </mxCell>
        <mxCell id="VUR_f_dKXdpQ3Um3fJ8c-12" value="Web &#xa;Browser" style="shape=module;align=left;spacingLeft=20;align=center;verticalAlign=middle;fillColor=#FFFFFF;" parent="VUR_f_dKXdpQ3Um3fJ8c-14" vertex="1">
          <mxGeometry x="140" y="60" width="100" height="50" as="geometry" />
        </mxCell>
        <mxCell id="VUR_f_dKXdpQ3Um3fJ8c-13" value="Local&lt;br&gt;Storage" style="rounded=1;whiteSpace=wrap;html=1;fillColor=#FFFFFF;align=center;" parent="VUR_f_dKXdpQ3Um3fJ8c-14" vertex="1">
          <mxGeometry x="20" y="60" width="100" height="50" as="geometry" />
        </mxCell>
        <mxCell id="VUR_f_dKXdpQ3Um3fJ8c-11" style="edgeStyle=orthogonalEdgeStyle;rounded=0;orthogonalLoop=1;jettySize=auto;html=1;exitX=0.5;exitY=1;exitDx=0;exitDy=0;entryX=0.5;entryY=1;entryDx=0;entryDy=0;dashed=1;startArrow=classic;startFill=1;" parent="VUR_f_dKXdpQ3Um3fJ8c-14" source="VUR_f_dKXdpQ3Um3fJ8c-12" target="VUR_f_dKXdpQ3Um3fJ8c-13" edge="1">
          <mxGeometry relative="1" as="geometry">
            <Array as="points">
              <mxPoint x="190" y="140" />
              <mxPoint x="70" y="140" />
            </Array>
          </mxGeometry>
        </mxCell>
        <mxCell id="VUR_f_dKXdpQ3Um3fJ8c-15" value="" style="group" parent="1" vertex="1" connectable="0">
          <mxGeometry x="70" y="120" width="270" height="180" as="geometry" />
        </mxCell>
        <mxCell id="VUR_f_dKXdpQ3Um3fJ8c-4" value="&amp;lt;&amp;lt;device&amp;gt;&amp;gt;&lt;br&gt;&lt;b&gt;Mobile Phone&lt;/b&gt;" style="verticalAlign=top;align=center;shape=cube;size=10;direction=south;fontStyle=0;html=1;boundedLbl=1;spacingLeft=5;fillColor=#FFFFFF;" parent="VUR_f_dKXdpQ3Um3fJ8c-15" vertex="1">
          <mxGeometry width="270" height="180" as="geometry" />
        </mxCell>
        <mxCell id="VUR_f_dKXdpQ3Um3fJ8c-7" value="Client&#xa;Application" style="shape=module;align=left;spacingLeft=20;align=center;verticalAlign=middle;fillColor=#FFFFFF;" parent="VUR_f_dKXdpQ3Um3fJ8c-15" vertex="1">
          <mxGeometry x="140" y="70" width="100" height="50" as="geometry" />
        </mxCell>
        <mxCell id="VUR_f_dKXdpQ3Um3fJ8c-8" value="Local&lt;br&gt;Storage" style="rounded=1;whiteSpace=wrap;html=1;fillColor=#FFFFFF;align=center;" parent="VUR_f_dKXdpQ3Um3fJ8c-15" vertex="1">
          <mxGeometry x="20" y="70" width="100" height="50" as="geometry" />
        </mxCell>
        <mxCell id="VUR_f_dKXdpQ3Um3fJ8c-9" style="edgeStyle=orthogonalEdgeStyle;rounded=0;orthogonalLoop=1;jettySize=auto;html=1;exitX=0.5;exitY=1;exitDx=0;exitDy=0;entryX=0.5;entryY=1;entryDx=0;entryDy=0;dashed=1;startArrow=classic;startFill=1;" parent="VUR_f_dKXdpQ3Um3fJ8c-15" source="VUR_f_dKXdpQ3Um3fJ8c-7" target="VUR_f_dKXdpQ3Um3fJ8c-8" edge="1">
          <mxGeometry relative="1" as="geometry">
            <Array as="points">
              <mxPoint x="190" y="150" />
              <mxPoint x="70" y="150" />
            </Array>
          </mxGeometry>
        </mxCell>
        <mxCell id="VUR_f_dKXdpQ3Um3fJ8c-17" value="&amp;lt;&amp;lt;device&amp;gt;&amp;gt;&lt;br&gt;&lt;b&gt;Web Server&lt;/b&gt;" style="verticalAlign=top;align=center;shape=cube;size=10;direction=south;fontStyle=0;html=1;boundedLbl=1;spacingLeft=5;fillColor=#FFFFFF;" parent="1" vertex="1">
          <mxGeometry x="360" y="120" width="200" height="330" as="geometry" />
        </mxCell>
        <mxCell id="VUR_f_dKXdpQ3Um3fJ8c-26" style="edgeStyle=orthogonalEdgeStyle;rounded=0;orthogonalLoop=1;jettySize=auto;html=1;exitX=0.5;exitY=0;exitDx=0;exitDy=0;entryX=0.5;entryY=1;entryDx=0;entryDy=0;dashed=1;startArrow=classic;startFill=1;" parent="1" source="VUR_f_dKXdpQ3Um3fJ8c-18" target="VUR_f_dKXdpQ3Um3fJ8c-23" edge="1">
          <mxGeometry relative="1" as="geometry">
            <Array as="points">
              <mxPoint x="450" y="320" />
              <mxPoint x="450" y="320" />
            </Array>
          </mxGeometry>
        </mxCell>
        <mxCell id="VUR_f_dKXdpQ3Um3fJ8c-18" value="Web &#xa;Application" style="shape=module;align=left;spacingLeft=20;align=center;verticalAlign=middle;fillColor=#FFFFFF;" parent="1" vertex="1">
          <mxGeometry x="400" y="340" width="100" height="50" as="geometry" />
        </mxCell>
        <mxCell id="VUR_f_dKXdpQ3Um3fJ8c-28" style="edgeStyle=orthogonalEdgeStyle;rounded=0;orthogonalLoop=1;jettySize=auto;html=1;exitX=1;exitY=0.5;exitDx=0;exitDy=0;entryX=0.5;entryY=1;entryDx=0;entryDy=0;dashed=1;startArrow=classic;startFill=1;" parent="1" source="VUR_f_dKXdpQ3Um3fJ8c-23" target="VUR_f_dKXdpQ3Um3fJ8c-27" edge="1">
          <mxGeometry relative="1" as="geometry" />
        </mxCell>
        <mxCell id="VUR_f_dKXdpQ3Um3fJ8c-23" value="API" style="shape=module;align=left;spacingLeft=20;align=center;verticalAlign=middle;fillColor=#FFFFFF;" parent="1" vertex="1">
          <mxGeometry x="400" y="235" width="100" height="50" as="geometry" />
        </mxCell>
        <mxCell id="VUR_f_dKXdpQ3Um3fJ8c-27" value="PostgreSql&#xa;Database" style="shape=module;align=left;spacingLeft=20;align=center;verticalAlign=middle;fillColor=#FFFFFF;" parent="1" vertex="1">
          <mxGeometry x="610" y="185" width="100" height="50" as="geometry" />
        </mxCell>
        <mxCell id="VUR_f_dKXdpQ3Um3fJ8c-32" style="edgeStyle=orthogonalEdgeStyle;rounded=0;orthogonalLoop=1;jettySize=auto;html=1;exitX=1;exitY=0.5;exitDx=0;exitDy=0;entryX=0.5;entryY=1;entryDx=0;entryDy=0;dashed=1;startArrow=classic;startFill=1;" parent="1" source="VUR_f_dKXdpQ3Um3fJ8c-12" target="VUR_f_dKXdpQ3Um3fJ8c-18" edge="1">
          <mxGeometry relative="1" as="geometry">
            <Array as="points">
              <mxPoint x="450" y="415" />
            </Array>
          </mxGeometry>
        </mxCell>
        <mxCell id="VUR_f_dKXdpQ3Um3fJ8c-33" style="edgeStyle=orthogonalEdgeStyle;rounded=0;orthogonalLoop=1;jettySize=auto;html=1;exitX=1;exitY=0.5;exitDx=0;exitDy=0;entryX=0.5;entryY=0;entryDx=0;entryDy=0;dashed=1;startArrow=classic;startFill=1;" parent="1" source="VUR_f_dKXdpQ3Um3fJ8c-7" target="VUR_f_dKXdpQ3Um3fJ8c-23" edge="1">
          <mxGeometry relative="1" as="geometry" />
        </mxCell>
        <mxCell id="cXEcaTY2lwT7MXvua-dQ-1" value="VIEWS&lt;br&gt;&lt;br&gt;1. Logical View&lt;br&gt;- State Diagram&lt;br&gt;- Class Diagram&lt;br&gt;2. Development View&lt;br&gt;- Component Diagram&lt;br&gt;3. Process View&lt;br&gt;- Activity Diagram&lt;br&gt;- Sequence Diagram&lt;br&gt;4. Physical View&lt;br&gt;- Deployment Diagram" style="rounded=0;whiteSpace=wrap;html=1;align=left;spacing=20;" vertex="1" parent="1">
          <mxGeometry x="820" y="60" width="370" height="350" as="geometry" />
        </mxCell>
        <mxCell id="cXEcaTY2lwT7MXvua-dQ-2" value="Deployment Diagram" style="rounded=0;whiteSpace=wrap;html=1;dashed=1;spacing=20;verticalAlign=top;align=left;fontStyle=1" vertex="1" parent="1">
          <mxGeometry x="40" y="600" width="740" height="470" as="geometry" />
        </mxCell>
        <mxCell id="cXEcaTY2lwT7MXvua-dQ-3" value="&amp;lt;&amp;lt;device&amp;gt;&amp;gt;&lt;br&gt;&lt;b&gt;Database and &lt;br&gt;Authentication Server&lt;/b&gt;" style="verticalAlign=top;align=center;shape=cube;size=10;direction=south;fontStyle=0;html=1;boundedLbl=1;spacingLeft=5;fillColor=#FFFFFF;" vertex="1" parent="1">
          <mxGeometry x="585" y="660" width="165" height="170" as="geometry" />
        </mxCell>
        <mxCell id="cXEcaTY2lwT7MXvua-dQ-4" value="" style="group" vertex="1" connectable="0" parent="1">
          <mxGeometry x="70" y="870" width="270" height="170" as="geometry" />
        </mxCell>
        <mxCell id="cXEcaTY2lwT7MXvua-dQ-5" value="&amp;lt;&amp;lt;device&amp;gt;&amp;gt;&lt;br&gt;&lt;b&gt;Personal Computer&lt;/b&gt;" style="verticalAlign=top;align=center;shape=cube;size=10;direction=south;fontStyle=0;html=1;boundedLbl=1;spacingLeft=5;fillColor=#FFFFFF;" vertex="1" parent="cXEcaTY2lwT7MXvua-dQ-4">
          <mxGeometry width="270" height="170" as="geometry" />
        </mxCell>
        <mxCell id="cXEcaTY2lwT7MXvua-dQ-6" value="Web &#xa;Browser" style="shape=module;align=left;spacingLeft=20;align=center;verticalAlign=middle;fillColor=#FFFFFF;" vertex="1" parent="cXEcaTY2lwT7MXvua-dQ-4">
          <mxGeometry x="140" y="60" width="100" height="50" as="geometry" />
        </mxCell>
        <mxCell id="cXEcaTY2lwT7MXvua-dQ-7" value="Local&lt;br&gt;Storage" style="rounded=1;whiteSpace=wrap;html=1;fillColor=#FFFFFF;align=center;" vertex="1" parent="cXEcaTY2lwT7MXvua-dQ-4">
          <mxGeometry x="20" y="60" width="100" height="50" as="geometry" />
        </mxCell>
        <mxCell id="cXEcaTY2lwT7MXvua-dQ-8" style="edgeStyle=orthogonalEdgeStyle;rounded=0;orthogonalLoop=1;jettySize=auto;html=1;exitX=0.5;exitY=1;exitDx=0;exitDy=0;entryX=0.5;entryY=1;entryDx=0;entryDy=0;dashed=1;startArrow=classic;startFill=1;" edge="1" parent="cXEcaTY2lwT7MXvua-dQ-4" source="cXEcaTY2lwT7MXvua-dQ-6" target="cXEcaTY2lwT7MXvua-dQ-7">
          <mxGeometry relative="1" as="geometry">
            <Array as="points">
              <mxPoint x="190" y="140" />
              <mxPoint x="70" y="140" />
            </Array>
          </mxGeometry>
        </mxCell>
        <mxCell id="cXEcaTY2lwT7MXvua-dQ-9" value="" style="group" vertex="1" connectable="0" parent="1">
          <mxGeometry x="70" y="660" width="270" height="180" as="geometry" />
        </mxCell>
        <mxCell id="cXEcaTY2lwT7MXvua-dQ-10" value="&amp;lt;&amp;lt;device&amp;gt;&amp;gt;&lt;br&gt;&lt;b&gt;Mobile Phone&lt;/b&gt;" style="verticalAlign=top;align=center;shape=cube;size=10;direction=south;fontStyle=0;html=1;boundedLbl=1;spacingLeft=5;fillColor=#FFFFFF;" vertex="1" parent="cXEcaTY2lwT7MXvua-dQ-9">
          <mxGeometry width="270" height="180" as="geometry" />
        </mxCell>
        <mxCell id="cXEcaTY2lwT7MXvua-dQ-11" value="Client&#xa;Application" style="shape=module;align=left;spacingLeft=20;align=center;verticalAlign=middle;fillColor=#FFFFFF;" vertex="1" parent="cXEcaTY2lwT7MXvua-dQ-9">
          <mxGeometry x="140" y="70" width="100" height="50" as="geometry" />
        </mxCell>
        <mxCell id="cXEcaTY2lwT7MXvua-dQ-12" value="Local&lt;br&gt;Storage" style="rounded=1;whiteSpace=wrap;html=1;fillColor=#FFFFFF;align=center;" vertex="1" parent="cXEcaTY2lwT7MXvua-dQ-9">
          <mxGeometry x="20" y="70" width="100" height="50" as="geometry" />
        </mxCell>
        <mxCell id="cXEcaTY2lwT7MXvua-dQ-13" style="edgeStyle=orthogonalEdgeStyle;rounded=0;orthogonalLoop=1;jettySize=auto;html=1;exitX=0.5;exitY=1;exitDx=0;exitDy=0;entryX=0.5;entryY=1;entryDx=0;entryDy=0;dashed=1;startArrow=classic;startFill=1;" edge="1" parent="cXEcaTY2lwT7MXvua-dQ-9" source="cXEcaTY2lwT7MXvua-dQ-11" target="cXEcaTY2lwT7MXvua-dQ-12">
          <mxGeometry relative="1" as="geometry">
            <Array as="points">
              <mxPoint x="190" y="150" />
              <mxPoint x="70" y="150" />
            </Array>
          </mxGeometry>
        </mxCell>
        <mxCell id="cXEcaTY2lwT7MXvua-dQ-14" value="&amp;lt;&amp;lt;device&amp;gt;&amp;gt;&lt;br&gt;&lt;b&gt;Web Server&lt;/b&gt;" style="verticalAlign=top;align=center;shape=cube;size=10;direction=south;fontStyle=0;html=1;boundedLbl=1;spacingLeft=5;fillColor=#FFFFFF;" vertex="1" parent="1">
          <mxGeometry x="360" y="660" width="200" height="330" as="geometry" />
        </mxCell>
        <mxCell id="cXEcaTY2lwT7MXvua-dQ-16" value="Web &#xa;Application" style="shape=module;align=left;spacingLeft=20;align=center;verticalAlign=middle;fillColor=#FFFFFF;" vertex="1" parent="1">
          <mxGeometry x="400" y="827" width="100" height="50" as="geometry" />
        </mxCell>
        <mxCell id="cXEcaTY2lwT7MXvua-dQ-17" style="edgeStyle=orthogonalEdgeStyle;rounded=0;orthogonalLoop=1;jettySize=auto;html=1;exitX=1;exitY=0.5;exitDx=0;exitDy=0;entryX=0.5;entryY=1;entryDx=0;entryDy=0;dashed=1;startArrow=classic;startFill=1;" edge="1" parent="1" source="cXEcaTY2lwT7MXvua-dQ-16" target="cXEcaTY2lwT7MXvua-dQ-19">
          <mxGeometry relative="1" as="geometry">
            <mxPoint x="500" y="800" as="sourcePoint" />
          </mxGeometry>
        </mxCell>
        <mxCell id="cXEcaTY2lwT7MXvua-dQ-19" value="Firebase" style="shape=module;align=left;spacingLeft=20;align=center;verticalAlign=middle;fillColor=#FFFFFF;" vertex="1" parent="1">
          <mxGeometry x="610" y="750" width="100" height="50" as="geometry" />
        </mxCell>
        <mxCell id="cXEcaTY2lwT7MXvua-dQ-20" style="edgeStyle=orthogonalEdgeStyle;rounded=0;orthogonalLoop=1;jettySize=auto;html=1;exitX=1;exitY=0.5;exitDx=0;exitDy=0;entryX=0.5;entryY=1;entryDx=0;entryDy=0;dashed=1;startArrow=classic;startFill=1;" edge="1" parent="1" source="cXEcaTY2lwT7MXvua-dQ-6" target="cXEcaTY2lwT7MXvua-dQ-16">
          <mxGeometry relative="1" as="geometry">
            <Array as="points">
              <mxPoint x="450" y="955" />
            </Array>
          </mxGeometry>
        </mxCell>
        <mxCell id="cXEcaTY2lwT7MXvua-dQ-21" style="edgeStyle=orthogonalEdgeStyle;rounded=0;orthogonalLoop=1;jettySize=auto;html=1;exitX=1;exitY=0.5;exitDx=0;exitDy=0;entryX=0.5;entryY=0;entryDx=0;entryDy=0;dashed=1;startArrow=classic;startFill=1;" edge="1" parent="1" source="cXEcaTY2lwT7MXvua-dQ-11" target="cXEcaTY2lwT7MXvua-dQ-16">
          <mxGeometry relative="1" as="geometry">
            <mxPoint x="450" y="775" as="targetPoint" />
          </mxGeometry>
        </mxCell>
        <mxCell id="cXEcaTY2lwT7MXvua-dQ-22" value="High-Level System Overview" style="rounded=0;whiteSpace=wrap;html=1;dashed=1;spacing=20;verticalAlign=top;align=left;fontStyle=1" vertex="1" parent="1">
          <mxGeometry x="40" y="1120" width="460" height="360" as="geometry" />
        </mxCell>
        <mxCell id="cXEcaTY2lwT7MXvua-dQ-26" style="edgeStyle=orthogonalEdgeStyle;rounded=0;orthogonalLoop=1;jettySize=auto;html=1;exitX=0.5;exitY=1;exitDx=0;exitDy=0;entryX=0.5;entryY=0;entryDx=0;entryDy=0;startArrow=block;startFill=1;endArrow=block;endFill=1;" edge="1" parent="1" source="cXEcaTY2lwT7MXvua-dQ-23" target="cXEcaTY2lwT7MXvua-dQ-25">
          <mxGeometry relative="1" as="geometry">
            <Array as="points">
              <mxPoint x="170" y="1300" />
              <mxPoint x="275" y="1300" />
            </Array>
          </mxGeometry>
        </mxCell>
        <mxCell id="cXEcaTY2lwT7MXvua-dQ-23" value="&lt;b&gt;Web Application&lt;/b&gt;&lt;br&gt;(Flutter)" style="rounded=0;whiteSpace=wrap;html=1;align=center;shadow=1;fillColor=#dae8fc;strokeColor=#6c8ebf;" vertex="1" parent="1">
          <mxGeometry x="80" y="1210" width="180" height="60" as="geometry" />
        </mxCell>
        <mxCell id="cXEcaTY2lwT7MXvua-dQ-27" style="edgeStyle=orthogonalEdgeStyle;rounded=0;orthogonalLoop=1;jettySize=auto;html=1;exitX=0.5;exitY=1;exitDx=0;exitDy=0;entryX=0.5;entryY=0;entryDx=0;entryDy=0;endArrow=block;endFill=1;startArrow=block;startFill=1;" edge="1" parent="1" source="cXEcaTY2lwT7MXvua-dQ-24" target="cXEcaTY2lwT7MXvua-dQ-25">
          <mxGeometry relative="1" as="geometry">
            <Array as="points">
              <mxPoint x="380" y="1300" />
              <mxPoint x="275" y="1300" />
            </Array>
          </mxGeometry>
        </mxCell>
        <mxCell id="cXEcaTY2lwT7MXvua-dQ-28" value="Database Storage&lt;br&gt;and&lt;br&gt;Google Authentication" style="edgeLabel;html=1;align=center;verticalAlign=middle;resizable=0;points=[];" vertex="1" connectable="0" parent="cXEcaTY2lwT7MXvua-dQ-27">
          <mxGeometry x="0.3796" y="1" relative="1" as="geometry">
            <mxPoint x="-1" y="16" as="offset" />
          </mxGeometry>
        </mxCell>
        <mxCell id="cXEcaTY2lwT7MXvua-dQ-24" value="&lt;b&gt;Mobile Apps&lt;/b&gt;&lt;br&gt;(Flutter)" style="rounded=0;whiteSpace=wrap;html=1;align=center;shadow=1;fillColor=#d5e8d4;strokeColor=#82b366;" vertex="1" parent="1">
          <mxGeometry x="290" y="1211" width="180" height="60" as="geometry" />
        </mxCell>
        <mxCell id="cXEcaTY2lwT7MXvua-dQ-25" value="&lt;b&gt;Firebase&lt;/b&gt;" style="rounded=0;whiteSpace=wrap;html=1;align=center;shadow=1;fillColor=#ffe6cc;strokeColor=#d79b00;" vertex="1" parent="1">
          <mxGeometry x="80" y="1380" width="390" height="60" as="geometry" />
        </mxCell>
        <mxCell id="cXEcaTY2lwT7MXvua-dQ-29" value="Database Design (Class Diagram)" style="rounded=0;whiteSpace=wrap;html=1;shadow=0;verticalAlign=top;spacing=20;fontStyle=1;dashed=1;align=left;" vertex="1" parent="1">
          <mxGeometry x="-1120" y="40" width="870" height="700" as="geometry" />
        </mxCell>
        <mxCell id="cXEcaTY2lwT7MXvua-dQ-30" style="edgeStyle=orthogonalEdgeStyle;rounded=0;orthogonalLoop=1;jettySize=auto;html=1;exitX=0;exitY=0.5;exitDx=0;exitDy=0;entryX=0;entryY=0.5;entryDx=0;entryDy=0;startArrow=ERmandOne;startFill=0;endArrow=ERzeroToMany;endFill=1;jumpStyle=none;" edge="1" parent="1" source="cXEcaTY2lwT7MXvua-dQ-128" target="cXEcaTY2lwT7MXvua-dQ-44">
          <mxGeometry relative="1" as="geometry">
            <mxPoint x="-730" y="145" as="sourcePoint" />
            <mxPoint x="-740" y="695" as="targetPoint" />
            <Array as="points">
              <mxPoint x="-850" y="145" />
              <mxPoint x="-850" y="695" />
            </Array>
          </mxGeometry>
        </mxCell>
        <mxCell id="cXEcaTY2lwT7MXvua-dQ-31" value="QuestionComments" style="shape=table;startSize=30;container=1;collapsible=1;childLayout=tableLayout;fixedRows=1;rowLines=0;fontStyle=1;align=center;resizeLast=1;fillColor=#dae8fc;strokeColor=#6c8ebf;" vertex="1" parent="1">
          <mxGeometry x="-800" y="530" width="180" height="180" as="geometry" />
        </mxCell>
        <mxCell id="cXEcaTY2lwT7MXvua-dQ-32" value="" style="shape=partialRectangle;collapsible=0;dropTarget=0;pointerEvents=0;fillColor=none;top=0;left=0;bottom=1;right=0;points=[[0,0.5],[1,0.5]];portConstraint=eastwest;" vertex="1" parent="cXEcaTY2lwT7MXvua-dQ-31">
          <mxGeometry y="30" width="180" height="30" as="geometry" />
        </mxCell>
        <mxCell id="cXEcaTY2lwT7MXvua-dQ-33" value="PK" style="shape=partialRectangle;connectable=0;fillColor=none;top=0;left=0;bottom=0;right=0;fontStyle=1;overflow=hidden;" vertex="1" parent="cXEcaTY2lwT7MXvua-dQ-32">
          <mxGeometry width="30" height="30" as="geometry" />
        </mxCell>
        <mxCell id="cXEcaTY2lwT7MXvua-dQ-34" value="CommentId" style="shape=partialRectangle;connectable=0;fillColor=none;top=0;left=0;bottom=0;right=0;align=left;spacingLeft=6;fontStyle=5;overflow=hidden;" vertex="1" parent="cXEcaTY2lwT7MXvua-dQ-32">
          <mxGeometry x="30" width="150" height="30" as="geometry" />
        </mxCell>
        <mxCell id="cXEcaTY2lwT7MXvua-dQ-35" value="" style="shape=partialRectangle;collapsible=0;dropTarget=0;pointerEvents=0;fillColor=none;top=0;left=0;bottom=0;right=0;points=[[0,0.5],[1,0.5]];portConstraint=eastwest;" vertex="1" parent="cXEcaTY2lwT7MXvua-dQ-31">
          <mxGeometry y="60" width="180" height="30" as="geometry" />
        </mxCell>
        <mxCell id="cXEcaTY2lwT7MXvua-dQ-36" value="" style="shape=partialRectangle;connectable=0;fillColor=none;top=0;left=0;bottom=0;right=0;editable=1;overflow=hidden;" vertex="1" parent="cXEcaTY2lwT7MXvua-dQ-35">
          <mxGeometry width="30" height="30" as="geometry" />
        </mxCell>
        <mxCell id="cXEcaTY2lwT7MXvua-dQ-37" value="Date" style="shape=partialRectangle;connectable=0;fillColor=none;top=0;left=0;bottom=0;right=0;align=left;spacingLeft=6;overflow=hidden;" vertex="1" parent="cXEcaTY2lwT7MXvua-dQ-35">
          <mxGeometry x="30" width="150" height="30" as="geometry" />
        </mxCell>
        <mxCell id="cXEcaTY2lwT7MXvua-dQ-38" value="" style="shape=partialRectangle;collapsible=0;dropTarget=0;pointerEvents=0;fillColor=none;top=0;left=0;bottom=0;right=0;points=[[0,0.5],[1,0.5]];portConstraint=eastwest;" vertex="1" parent="cXEcaTY2lwT7MXvua-dQ-31">
          <mxGeometry y="90" width="180" height="30" as="geometry" />
        </mxCell>
        <mxCell id="cXEcaTY2lwT7MXvua-dQ-39" value="" style="shape=partialRectangle;connectable=0;fillColor=none;top=0;left=0;bottom=0;right=0;editable=1;overflow=hidden;" vertex="1" parent="cXEcaTY2lwT7MXvua-dQ-38">
          <mxGeometry width="30" height="30" as="geometry" />
        </mxCell>
        <mxCell id="cXEcaTY2lwT7MXvua-dQ-40" value="Body" style="shape=partialRectangle;connectable=0;fillColor=none;top=0;left=0;bottom=0;right=0;align=left;spacingLeft=6;overflow=hidden;" vertex="1" parent="cXEcaTY2lwT7MXvua-dQ-38">
          <mxGeometry x="30" width="150" height="30" as="geometry" />
        </mxCell>
        <mxCell id="cXEcaTY2lwT7MXvua-dQ-41" value="" style="shape=partialRectangle;collapsible=0;dropTarget=0;pointerEvents=0;fillColor=none;top=0;left=0;bottom=0;right=0;points=[[0,0.5],[1,0.5]];portConstraint=eastwest;" vertex="1" parent="cXEcaTY2lwT7MXvua-dQ-31">
          <mxGeometry y="120" width="180" height="30" as="geometry" />
        </mxCell>
        <mxCell id="cXEcaTY2lwT7MXvua-dQ-42" value="FK" style="shape=partialRectangle;connectable=0;fillColor=none;top=0;left=0;bottom=0;right=0;fontStyle=0;overflow=hidden;" vertex="1" parent="cXEcaTY2lwT7MXvua-dQ-41">
          <mxGeometry width="30" height="30" as="geometry" />
        </mxCell>
        <mxCell id="cXEcaTY2lwT7MXvua-dQ-43" value="QuestionId" style="shape=partialRectangle;connectable=0;fillColor=none;top=0;left=0;bottom=0;right=0;align=left;spacingLeft=6;fontStyle=0;overflow=hidden;" vertex="1" parent="cXEcaTY2lwT7MXvua-dQ-41">
          <mxGeometry x="30" width="150" height="30" as="geometry" />
        </mxCell>
        <mxCell id="cXEcaTY2lwT7MXvua-dQ-44" value="" style="shape=partialRectangle;collapsible=0;dropTarget=0;pointerEvents=0;fillColor=none;top=0;left=0;bottom=0;right=0;points=[[0,0.5],[1,0.5]];portConstraint=eastwest;" vertex="1" parent="cXEcaTY2lwT7MXvua-dQ-31">
          <mxGeometry y="150" width="180" height="30" as="geometry" />
        </mxCell>
        <mxCell id="cXEcaTY2lwT7MXvua-dQ-45" value="FK" style="shape=partialRectangle;connectable=0;fillColor=none;top=0;left=0;bottom=0;right=0;editable=1;overflow=hidden;" vertex="1" parent="cXEcaTY2lwT7MXvua-dQ-44">
          <mxGeometry width="30" height="30" as="geometry" />
        </mxCell>
        <mxCell id="cXEcaTY2lwT7MXvua-dQ-46" value="AuthorId" style="shape=partialRectangle;connectable=0;fillColor=none;top=0;left=0;bottom=0;right=0;align=left;spacingLeft=6;overflow=hidden;" vertex="1" parent="cXEcaTY2lwT7MXvua-dQ-44">
          <mxGeometry x="30" width="150" height="30" as="geometry" />
        </mxCell>
        <mxCell id="cXEcaTY2lwT7MXvua-dQ-47" value="Questions" style="shape=table;startSize=30;container=1;collapsible=1;childLayout=tableLayout;fixedRows=1;rowLines=0;fontStyle=1;align=center;resizeLast=1;fillColor=#dae8fc;strokeColor=#6c8ebf;" vertex="1" parent="1">
          <mxGeometry x="-800" y="260" width="230" height="240" as="geometry" />
        </mxCell>
        <mxCell id="cXEcaTY2lwT7MXvua-dQ-48" value="" style="shape=partialRectangle;collapsible=0;dropTarget=0;pointerEvents=0;fillColor=none;top=0;left=0;bottom=1;right=0;points=[[0,0.5],[1,0.5]];portConstraint=eastwest;" vertex="1" parent="cXEcaTY2lwT7MXvua-dQ-47">
          <mxGeometry y="30" width="230" height="30" as="geometry" />
        </mxCell>
        <mxCell id="cXEcaTY2lwT7MXvua-dQ-49" value="PK" style="shape=partialRectangle;connectable=0;fillColor=none;top=0;left=0;bottom=0;right=0;fontStyle=1;overflow=hidden;" vertex="1" parent="cXEcaTY2lwT7MXvua-dQ-48">
          <mxGeometry width="30" height="30" as="geometry" />
        </mxCell>
        <mxCell id="cXEcaTY2lwT7MXvua-dQ-50" value="QuestionId" style="shape=partialRectangle;connectable=0;fillColor=none;top=0;left=0;bottom=0;right=0;align=left;spacingLeft=6;fontStyle=5;overflow=hidden;" vertex="1" parent="cXEcaTY2lwT7MXvua-dQ-48">
          <mxGeometry x="30" width="200" height="30" as="geometry" />
        </mxCell>
        <mxCell id="cXEcaTY2lwT7MXvua-dQ-51" value="" style="shape=partialRectangle;collapsible=0;dropTarget=0;pointerEvents=0;fillColor=none;top=0;left=0;bottom=0;right=0;points=[[0,0.5],[1,0.5]];portConstraint=eastwest;" vertex="1" parent="cXEcaTY2lwT7MXvua-dQ-47">
          <mxGeometry y="60" width="230" height="30" as="geometry" />
        </mxCell>
        <mxCell id="cXEcaTY2lwT7MXvua-dQ-52" value="" style="shape=partialRectangle;connectable=0;fillColor=none;top=0;left=0;bottom=0;right=0;editable=1;overflow=hidden;" vertex="1" parent="cXEcaTY2lwT7MXvua-dQ-51">
          <mxGeometry width="30" height="30" as="geometry" />
        </mxCell>
        <mxCell id="cXEcaTY2lwT7MXvua-dQ-53" value="Date" style="shape=partialRectangle;connectable=0;fillColor=none;top=0;left=0;bottom=0;right=0;align=left;spacingLeft=6;overflow=hidden;" vertex="1" parent="cXEcaTY2lwT7MXvua-dQ-51">
          <mxGeometry x="30" width="200" height="30" as="geometry" />
        </mxCell>
        <mxCell id="cXEcaTY2lwT7MXvua-dQ-54" value="" style="shape=partialRectangle;collapsible=0;dropTarget=0;pointerEvents=0;fillColor=none;top=0;left=0;bottom=0;right=0;points=[[0,0.5],[1,0.5]];portConstraint=eastwest;" vertex="1" parent="cXEcaTY2lwT7MXvua-dQ-47">
          <mxGeometry y="90" width="230" height="30" as="geometry" />
        </mxCell>
        <mxCell id="cXEcaTY2lwT7MXvua-dQ-55" value="" style="shape=partialRectangle;connectable=0;fillColor=none;top=0;left=0;bottom=0;right=0;editable=1;overflow=hidden;" vertex="1" parent="cXEcaTY2lwT7MXvua-dQ-54">
          <mxGeometry width="30" height="30" as="geometry" />
        </mxCell>
        <mxCell id="cXEcaTY2lwT7MXvua-dQ-56" value="Title" style="shape=partialRectangle;connectable=0;fillColor=none;top=0;left=0;bottom=0;right=0;align=left;spacingLeft=6;overflow=hidden;" vertex="1" parent="cXEcaTY2lwT7MXvua-dQ-54">
          <mxGeometry x="30" width="200" height="30" as="geometry" />
        </mxCell>
        <mxCell id="cXEcaTY2lwT7MXvua-dQ-57" style="shape=partialRectangle;collapsible=0;dropTarget=0;pointerEvents=0;fillColor=none;top=0;left=0;bottom=0;right=0;points=[[0,0.5],[1,0.5]];portConstraint=eastwest;" vertex="1" parent="cXEcaTY2lwT7MXvua-dQ-47">
          <mxGeometry y="120" width="230" height="30" as="geometry" />
        </mxCell>
        <mxCell id="cXEcaTY2lwT7MXvua-dQ-58" style="shape=partialRectangle;connectable=0;fillColor=none;top=0;left=0;bottom=0;right=0;editable=1;overflow=hidden;" vertex="1" parent="cXEcaTY2lwT7MXvua-dQ-57">
          <mxGeometry width="30" height="30" as="geometry" />
        </mxCell>
        <mxCell id="cXEcaTY2lwT7MXvua-dQ-59" value="Body" style="shape=partialRectangle;connectable=0;fillColor=none;top=0;left=0;bottom=0;right=0;align=left;spacingLeft=6;overflow=hidden;" vertex="1" parent="cXEcaTY2lwT7MXvua-dQ-57">
          <mxGeometry x="30" width="200" height="30" as="geometry" />
        </mxCell>
        <mxCell id="cXEcaTY2lwT7MXvua-dQ-60" value="" style="shape=partialRectangle;collapsible=0;dropTarget=0;pointerEvents=0;fillColor=none;top=0;left=0;bottom=0;right=0;points=[[0,0.5],[1,0.5]];portConstraint=eastwest;" vertex="1" parent="cXEcaTY2lwT7MXvua-dQ-47">
          <mxGeometry y="150" width="230" height="30" as="geometry" />
        </mxCell>
        <mxCell id="cXEcaTY2lwT7MXvua-dQ-61" value="" style="shape=partialRectangle;connectable=0;fillColor=none;top=0;left=0;bottom=0;right=0;editable=1;overflow=hidden;" vertex="1" parent="cXEcaTY2lwT7MXvua-dQ-60">
          <mxGeometry width="30" height="30" as="geometry" />
        </mxCell>
        <mxCell id="cXEcaTY2lwT7MXvua-dQ-62" value="Score" style="shape=partialRectangle;connectable=0;fillColor=none;top=0;left=0;bottom=0;right=0;align=left;spacingLeft=6;overflow=hidden;" vertex="1" parent="cXEcaTY2lwT7MXvua-dQ-60">
          <mxGeometry x="30" width="200" height="30" as="geometry" />
        </mxCell>
        <mxCell id="cXEcaTY2lwT7MXvua-dQ-63" value="" style="shape=partialRectangle;collapsible=0;dropTarget=0;pointerEvents=0;fillColor=none;top=0;left=0;bottom=0;right=0;points=[[0,0.5],[1,0.5]];portConstraint=eastwest;" vertex="1" parent="cXEcaTY2lwT7MXvua-dQ-47">
          <mxGeometry y="180" width="230" height="30" as="geometry" />
        </mxCell>
        <mxCell id="cXEcaTY2lwT7MXvua-dQ-64" value="FK" style="shape=partialRectangle;connectable=0;fillColor=none;top=0;left=0;bottom=0;right=0;fontStyle=0;overflow=hidden;" vertex="1" parent="cXEcaTY2lwT7MXvua-dQ-63">
          <mxGeometry width="30" height="30" as="geometry" />
        </mxCell>
        <mxCell id="cXEcaTY2lwT7MXvua-dQ-65" value="AuthorId" style="shape=partialRectangle;connectable=0;fillColor=none;top=0;left=0;bottom=0;right=0;align=left;spacingLeft=6;fontStyle=0;overflow=hidden;" vertex="1" parent="cXEcaTY2lwT7MXvua-dQ-63">
          <mxGeometry x="30" width="200" height="30" as="geometry" />
        </mxCell>
        <mxCell id="cXEcaTY2lwT7MXvua-dQ-66" value="" style="shape=partialRectangle;collapsible=0;dropTarget=0;pointerEvents=0;fillColor=none;top=0;left=0;bottom=0;right=0;points=[[0,0.5],[1,0.5]];portConstraint=eastwest;" vertex="1" parent="cXEcaTY2lwT7MXvua-dQ-47">
          <mxGeometry y="210" width="230" height="30" as="geometry" />
        </mxCell>
        <mxCell id="cXEcaTY2lwT7MXvua-dQ-67" value="FK" style="shape=partialRectangle;connectable=0;fillColor=none;top=0;left=0;bottom=0;right=0;fontStyle=0;overflow=hidden;" vertex="1" parent="cXEcaTY2lwT7MXvua-dQ-66">
          <mxGeometry width="30" height="30" as="geometry" />
        </mxCell>
        <mxCell id="cXEcaTY2lwT7MXvua-dQ-68" value="ModuleId" style="shape=partialRectangle;connectable=0;fillColor=none;top=0;left=0;bottom=0;right=0;align=left;spacingLeft=6;fontStyle=0;overflow=hidden;" vertex="1" parent="cXEcaTY2lwT7MXvua-dQ-66">
          <mxGeometry x="30" width="200" height="30" as="geometry" />
        </mxCell>
        <mxCell id="cXEcaTY2lwT7MXvua-dQ-69" value="Answers" style="shape=table;startSize=30;container=1;collapsible=1;childLayout=tableLayout;fixedRows=1;rowLines=0;fontStyle=1;align=center;resizeLast=1;fillColor=#dae8fc;strokeColor=#6c8ebf;" vertex="1" parent="1">
          <mxGeometry x="-490" y="470" width="210" height="210" as="geometry" />
        </mxCell>
        <mxCell id="cXEcaTY2lwT7MXvua-dQ-70" value="" style="shape=partialRectangle;collapsible=0;dropTarget=0;pointerEvents=0;fillColor=none;top=0;left=0;bottom=1;right=0;points=[[0,0.5],[1,0.5]];portConstraint=eastwest;" vertex="1" parent="cXEcaTY2lwT7MXvua-dQ-69">
          <mxGeometry y="30" width="210" height="30" as="geometry" />
        </mxCell>
        <mxCell id="cXEcaTY2lwT7MXvua-dQ-71" value="PK" style="shape=partialRectangle;connectable=0;fillColor=none;top=0;left=0;bottom=0;right=0;fontStyle=1;overflow=hidden;" vertex="1" parent="cXEcaTY2lwT7MXvua-dQ-70">
          <mxGeometry width="30" height="30" as="geometry" />
        </mxCell>
        <mxCell id="cXEcaTY2lwT7MXvua-dQ-72" value="AnswerId" style="shape=partialRectangle;connectable=0;fillColor=none;top=0;left=0;bottom=0;right=0;align=left;spacingLeft=6;fontStyle=5;overflow=hidden;" vertex="1" parent="cXEcaTY2lwT7MXvua-dQ-70">
          <mxGeometry x="30" width="180" height="30" as="geometry" />
        </mxCell>
        <mxCell id="cXEcaTY2lwT7MXvua-dQ-73" value="" style="shape=partialRectangle;collapsible=0;dropTarget=0;pointerEvents=0;fillColor=none;top=0;left=0;bottom=0;right=0;points=[[0,0.5],[1,0.5]];portConstraint=eastwest;" vertex="1" parent="cXEcaTY2lwT7MXvua-dQ-69">
          <mxGeometry y="60" width="210" height="30" as="geometry" />
        </mxCell>
        <mxCell id="cXEcaTY2lwT7MXvua-dQ-74" value="" style="shape=partialRectangle;connectable=0;fillColor=none;top=0;left=0;bottom=0;right=0;editable=1;overflow=hidden;" vertex="1" parent="cXEcaTY2lwT7MXvua-dQ-73">
          <mxGeometry width="30" height="30" as="geometry" />
        </mxCell>
        <mxCell id="cXEcaTY2lwT7MXvua-dQ-75" value="Date" style="shape=partialRectangle;connectable=0;fillColor=none;top=0;left=0;bottom=0;right=0;align=left;spacingLeft=6;overflow=hidden;" vertex="1" parent="cXEcaTY2lwT7MXvua-dQ-73">
          <mxGeometry x="30" width="180" height="30" as="geometry" />
        </mxCell>
        <mxCell id="cXEcaTY2lwT7MXvua-dQ-76" value="" style="shape=partialRectangle;collapsible=0;dropTarget=0;pointerEvents=0;fillColor=none;top=0;left=0;bottom=0;right=0;points=[[0,0.5],[1,0.5]];portConstraint=eastwest;" vertex="1" parent="cXEcaTY2lwT7MXvua-dQ-69">
          <mxGeometry y="90" width="210" height="30" as="geometry" />
        </mxCell>
        <mxCell id="cXEcaTY2lwT7MXvua-dQ-77" value="" style="shape=partialRectangle;connectable=0;fillColor=none;top=0;left=0;bottom=0;right=0;editable=1;overflow=hidden;" vertex="1" parent="cXEcaTY2lwT7MXvua-dQ-76">
          <mxGeometry width="30" height="30" as="geometry" />
        </mxCell>
        <mxCell id="cXEcaTY2lwT7MXvua-dQ-78" value="Body" style="shape=partialRectangle;connectable=0;fillColor=none;top=0;left=0;bottom=0;right=0;align=left;spacingLeft=6;overflow=hidden;" vertex="1" parent="cXEcaTY2lwT7MXvua-dQ-76">
          <mxGeometry x="30" width="180" height="30" as="geometry" />
        </mxCell>
        <mxCell id="cXEcaTY2lwT7MXvua-dQ-79" value="" style="shape=partialRectangle;collapsible=0;dropTarget=0;pointerEvents=0;fillColor=none;top=0;left=0;bottom=0;right=0;points=[[0,0.5],[1,0.5]];portConstraint=eastwest;" vertex="1" parent="cXEcaTY2lwT7MXvua-dQ-69">
          <mxGeometry y="120" width="210" height="30" as="geometry" />
        </mxCell>
        <mxCell id="cXEcaTY2lwT7MXvua-dQ-80" value="" style="shape=partialRectangle;connectable=0;fillColor=none;top=0;left=0;bottom=0;right=0;editable=1;overflow=hidden;" vertex="1" parent="cXEcaTY2lwT7MXvua-dQ-79">
          <mxGeometry width="30" height="30" as="geometry" />
        </mxCell>
        <mxCell id="cXEcaTY2lwT7MXvua-dQ-81" value="Score" style="shape=partialRectangle;connectable=0;fillColor=none;top=0;left=0;bottom=0;right=0;align=left;spacingLeft=6;overflow=hidden;" vertex="1" parent="cXEcaTY2lwT7MXvua-dQ-79">
          <mxGeometry x="30" width="180" height="30" as="geometry" />
        </mxCell>
        <mxCell id="cXEcaTY2lwT7MXvua-dQ-82" value="" style="shape=partialRectangle;collapsible=0;dropTarget=0;pointerEvents=0;fillColor=none;top=0;left=0;bottom=0;right=0;points=[[0,0.5],[1,0.5]];portConstraint=eastwest;" vertex="1" parent="cXEcaTY2lwT7MXvua-dQ-69">
          <mxGeometry y="150" width="210" height="30" as="geometry" />
        </mxCell>
        <mxCell id="cXEcaTY2lwT7MXvua-dQ-83" value="FK" style="shape=partialRectangle;connectable=0;fillColor=none;top=0;left=0;bottom=0;right=0;fontStyle=0;overflow=hidden;" vertex="1" parent="cXEcaTY2lwT7MXvua-dQ-82">
          <mxGeometry width="30" height="30" as="geometry" />
        </mxCell>
        <mxCell id="cXEcaTY2lwT7MXvua-dQ-84" value="AuthorId" style="shape=partialRectangle;connectable=0;fillColor=none;top=0;left=0;bottom=0;right=0;align=left;spacingLeft=6;fontStyle=0;overflow=hidden;" vertex="1" parent="cXEcaTY2lwT7MXvua-dQ-82">
          <mxGeometry x="30" width="180" height="30" as="geometry" />
        </mxCell>
        <mxCell id="cXEcaTY2lwT7MXvua-dQ-85" value="" style="shape=partialRectangle;collapsible=0;dropTarget=0;pointerEvents=0;fillColor=none;top=0;left=0;bottom=0;right=0;points=[[0,0.5],[1,0.5]];portConstraint=eastwest;" vertex="1" parent="cXEcaTY2lwT7MXvua-dQ-69">
          <mxGeometry y="180" width="210" height="30" as="geometry" />
        </mxCell>
        <mxCell id="cXEcaTY2lwT7MXvua-dQ-86" value="FK" style="shape=partialRectangle;connectable=0;fillColor=none;top=0;left=0;bottom=0;right=0;fontStyle=0;overflow=hidden;" vertex="1" parent="cXEcaTY2lwT7MXvua-dQ-85">
          <mxGeometry width="30" height="30" as="geometry" />
        </mxCell>
        <mxCell id="cXEcaTY2lwT7MXvua-dQ-87" value="QuestionId" style="shape=partialRectangle;connectable=0;fillColor=none;top=0;left=0;bottom=0;right=0;align=left;spacingLeft=6;fontStyle=0;overflow=hidden;" vertex="1" parent="cXEcaTY2lwT7MXvua-dQ-85">
          <mxGeometry x="30" width="180" height="30" as="geometry" />
        </mxCell>
        <mxCell id="cXEcaTY2lwT7MXvua-dQ-88" value="Modules" style="shape=table;startSize=30;container=1;collapsible=1;childLayout=tableLayout;fixedRows=1;rowLines=0;fontStyle=1;align=center;resizeLast=1;fillColor=#dae8fc;strokeColor=#6c8ebf;" vertex="1" parent="1">
          <mxGeometry x="-1070" y="440" width="200" height="180" as="geometry" />
        </mxCell>
        <mxCell id="cXEcaTY2lwT7MXvua-dQ-89" value="" style="shape=partialRectangle;collapsible=0;dropTarget=0;pointerEvents=0;fillColor=none;top=0;left=0;bottom=1;right=0;points=[[0,0.5],[1,0.5]];portConstraint=eastwest;" vertex="1" parent="cXEcaTY2lwT7MXvua-dQ-88">
          <mxGeometry y="30" width="200" height="30" as="geometry" />
        </mxCell>
        <mxCell id="cXEcaTY2lwT7MXvua-dQ-90" value="PK" style="shape=partialRectangle;connectable=0;fillColor=none;top=0;left=0;bottom=0;right=0;fontStyle=1;overflow=hidden;" vertex="1" parent="cXEcaTY2lwT7MXvua-dQ-89">
          <mxGeometry width="30" height="30" as="geometry" />
        </mxCell>
        <mxCell id="cXEcaTY2lwT7MXvua-dQ-91" value="ModuleId" style="shape=partialRectangle;connectable=0;fillColor=none;top=0;left=0;bottom=0;right=0;align=left;spacingLeft=6;fontStyle=5;overflow=hidden;" vertex="1" parent="cXEcaTY2lwT7MXvua-dQ-89">
          <mxGeometry x="30" width="170" height="30" as="geometry" />
        </mxCell>
        <mxCell id="cXEcaTY2lwT7MXvua-dQ-92" value="" style="shape=partialRectangle;collapsible=0;dropTarget=0;pointerEvents=0;fillColor=none;top=0;left=0;bottom=0;right=0;points=[[0,0.5],[1,0.5]];portConstraint=eastwest;" vertex="1" parent="cXEcaTY2lwT7MXvua-dQ-88">
          <mxGeometry y="60" width="200" height="30" as="geometry" />
        </mxCell>
        <mxCell id="cXEcaTY2lwT7MXvua-dQ-93" value="FK" style="shape=partialRectangle;connectable=0;fillColor=none;top=0;left=0;bottom=0;right=0;fontStyle=0;overflow=hidden;" vertex="1" parent="cXEcaTY2lwT7MXvua-dQ-92">
          <mxGeometry width="30" height="30" as="geometry" />
        </mxCell>
        <mxCell id="cXEcaTY2lwT7MXvua-dQ-94" value="CourseId" style="shape=partialRectangle;connectable=0;fillColor=none;top=0;left=0;bottom=0;right=0;align=left;spacingLeft=6;fontStyle=0;overflow=hidden;" vertex="1" parent="cXEcaTY2lwT7MXvua-dQ-92">
          <mxGeometry x="30" width="170" height="30" as="geometry" />
        </mxCell>
        <mxCell id="cXEcaTY2lwT7MXvua-dQ-95" value="" style="shape=partialRectangle;collapsible=0;dropTarget=0;pointerEvents=0;fillColor=none;top=0;left=0;bottom=0;right=0;points=[[0,0.5],[1,0.5]];portConstraint=eastwest;" vertex="1" parent="cXEcaTY2lwT7MXvua-dQ-88">
          <mxGeometry y="90" width="200" height="30" as="geometry" />
        </mxCell>
        <mxCell id="cXEcaTY2lwT7MXvua-dQ-96" value="" style="shape=partialRectangle;connectable=0;fillColor=none;top=0;left=0;bottom=0;right=0;editable=1;overflow=hidden;" vertex="1" parent="cXEcaTY2lwT7MXvua-dQ-95">
          <mxGeometry width="30" height="30" as="geometry" />
        </mxCell>
        <mxCell id="cXEcaTY2lwT7MXvua-dQ-97" value="Code" style="shape=partialRectangle;connectable=0;fillColor=none;top=0;left=0;bottom=0;right=0;align=left;spacingLeft=6;overflow=hidden;" vertex="1" parent="cXEcaTY2lwT7MXvua-dQ-95">
          <mxGeometry x="30" width="170" height="30" as="geometry" />
        </mxCell>
        <mxCell id="cXEcaTY2lwT7MXvua-dQ-98" value="" style="shape=partialRectangle;collapsible=0;dropTarget=0;pointerEvents=0;fillColor=none;top=0;left=0;bottom=0;right=0;points=[[0,0.5],[1,0.5]];portConstraint=eastwest;" vertex="1" parent="cXEcaTY2lwT7MXvua-dQ-88">
          <mxGeometry y="120" width="200" height="30" as="geometry" />
        </mxCell>
        <mxCell id="cXEcaTY2lwT7MXvua-dQ-99" value="" style="shape=partialRectangle;connectable=0;fillColor=none;top=0;left=0;bottom=0;right=0;editable=1;overflow=hidden;" vertex="1" parent="cXEcaTY2lwT7MXvua-dQ-98">
          <mxGeometry width="30" height="30" as="geometry" />
        </mxCell>
        <mxCell id="cXEcaTY2lwT7MXvua-dQ-100" value="Name" style="shape=partialRectangle;connectable=0;fillColor=none;top=0;left=0;bottom=0;right=0;align=left;spacingLeft=6;overflow=hidden;" vertex="1" parent="cXEcaTY2lwT7MXvua-dQ-98">
          <mxGeometry x="30" width="170" height="30" as="geometry" />
        </mxCell>
        <mxCell id="cXEcaTY2lwT7MXvua-dQ-101" style="shape=partialRectangle;collapsible=0;dropTarget=0;pointerEvents=0;fillColor=none;top=0;left=0;bottom=0;right=0;points=[[0,0.5],[1,0.5]];portConstraint=eastwest;" vertex="1" parent="cXEcaTY2lwT7MXvua-dQ-88">
          <mxGeometry y="150" width="200" height="30" as="geometry" />
        </mxCell>
        <mxCell id="cXEcaTY2lwT7MXvua-dQ-102" style="shape=partialRectangle;connectable=0;fillColor=none;top=0;left=0;bottom=0;right=0;editable=1;overflow=hidden;" vertex="1" parent="cXEcaTY2lwT7MXvua-dQ-101">
          <mxGeometry width="30" height="30" as="geometry" />
        </mxCell>
        <mxCell id="cXEcaTY2lwT7MXvua-dQ-103" value="Year" style="shape=partialRectangle;connectable=0;fillColor=none;top=0;left=0;bottom=0;right=0;align=left;spacingLeft=6;overflow=hidden;" vertex="1" parent="cXEcaTY2lwT7MXvua-dQ-101">
          <mxGeometry x="30" width="170" height="30" as="geometry" />
        </mxCell>
        <mxCell id="cXEcaTY2lwT7MXvua-dQ-104" value="Courses" style="shape=table;startSize=30;container=1;collapsible=1;childLayout=tableLayout;fixedRows=1;rowLines=0;fontStyle=1;align=center;resizeLast=1;fillColor=#dae8fc;strokeColor=#6c8ebf;" vertex="1" parent="1">
          <mxGeometry x="-1070" y="310" width="200" height="90" as="geometry" />
        </mxCell>
        <mxCell id="cXEcaTY2lwT7MXvua-dQ-105" value="" style="shape=partialRectangle;collapsible=0;dropTarget=0;pointerEvents=0;fillColor=none;top=0;left=0;bottom=1;right=0;points=[[0,0.5],[1,0.5]];portConstraint=eastwest;" vertex="1" parent="cXEcaTY2lwT7MXvua-dQ-104">
          <mxGeometry y="30" width="200" height="30" as="geometry" />
        </mxCell>
        <mxCell id="cXEcaTY2lwT7MXvua-dQ-106" value="PK" style="shape=partialRectangle;connectable=0;fillColor=none;top=0;left=0;bottom=0;right=0;fontStyle=1;overflow=hidden;" vertex="1" parent="cXEcaTY2lwT7MXvua-dQ-105">
          <mxGeometry width="30" height="30" as="geometry" />
        </mxCell>
        <mxCell id="cXEcaTY2lwT7MXvua-dQ-107" value="CourseId" style="shape=partialRectangle;connectable=0;fillColor=none;top=0;left=0;bottom=0;right=0;align=left;spacingLeft=6;fontStyle=5;overflow=hidden;" vertex="1" parent="cXEcaTY2lwT7MXvua-dQ-105">
          <mxGeometry x="30" width="170" height="30" as="geometry" />
        </mxCell>
        <mxCell id="cXEcaTY2lwT7MXvua-dQ-108" value="" style="shape=partialRectangle;collapsible=0;dropTarget=0;pointerEvents=0;fillColor=none;top=0;left=0;bottom=0;right=0;points=[[0,0.5],[1,0.5]];portConstraint=eastwest;" vertex="1" parent="cXEcaTY2lwT7MXvua-dQ-104">
          <mxGeometry y="60" width="200" height="30" as="geometry" />
        </mxCell>
        <mxCell id="cXEcaTY2lwT7MXvua-dQ-109" value="" style="shape=partialRectangle;connectable=0;fillColor=none;top=0;left=0;bottom=0;right=0;editable=1;overflow=hidden;" vertex="1" parent="cXEcaTY2lwT7MXvua-dQ-108">
          <mxGeometry width="30" height="30" as="geometry" />
        </mxCell>
        <mxCell id="cXEcaTY2lwT7MXvua-dQ-110" value="Name" style="shape=partialRectangle;connectable=0;fillColor=none;top=0;left=0;bottom=0;right=0;align=left;spacingLeft=6;overflow=hidden;" vertex="1" parent="cXEcaTY2lwT7MXvua-dQ-108">
          <mxGeometry x="30" width="170" height="30" as="geometry" />
        </mxCell>
        <mxCell id="cXEcaTY2lwT7MXvua-dQ-111" value="AnswerComments" style="shape=table;startSize=30;container=1;collapsible=1;childLayout=tableLayout;fixedRows=1;rowLines=0;fontStyle=1;align=center;resizeLast=1;fillColor=#dae8fc;strokeColor=#6c8ebf;" vertex="1" parent="1">
          <mxGeometry x="-490" y="230" width="180" height="180" as="geometry" />
        </mxCell>
        <mxCell id="cXEcaTY2lwT7MXvua-dQ-112" value="" style="shape=partialRectangle;collapsible=0;dropTarget=0;pointerEvents=0;fillColor=none;top=0;left=0;bottom=1;right=0;points=[[0,0.5],[1,0.5]];portConstraint=eastwest;" vertex="1" parent="cXEcaTY2lwT7MXvua-dQ-111">
          <mxGeometry y="30" width="180" height="30" as="geometry" />
        </mxCell>
        <mxCell id="cXEcaTY2lwT7MXvua-dQ-113" value="PK" style="shape=partialRectangle;connectable=0;fillColor=none;top=0;left=0;bottom=0;right=0;fontStyle=1;overflow=hidden;" vertex="1" parent="cXEcaTY2lwT7MXvua-dQ-112">
          <mxGeometry width="30" height="30" as="geometry" />
        </mxCell>
        <mxCell id="cXEcaTY2lwT7MXvua-dQ-114" value="CommentId" style="shape=partialRectangle;connectable=0;fillColor=none;top=0;left=0;bottom=0;right=0;align=left;spacingLeft=6;fontStyle=5;overflow=hidden;" vertex="1" parent="cXEcaTY2lwT7MXvua-dQ-112">
          <mxGeometry x="30" width="150" height="30" as="geometry" />
        </mxCell>
        <mxCell id="cXEcaTY2lwT7MXvua-dQ-115" value="" style="shape=partialRectangle;collapsible=0;dropTarget=0;pointerEvents=0;fillColor=none;top=0;left=0;bottom=0;right=0;points=[[0,0.5],[1,0.5]];portConstraint=eastwest;" vertex="1" parent="cXEcaTY2lwT7MXvua-dQ-111">
          <mxGeometry y="60" width="180" height="30" as="geometry" />
        </mxCell>
        <mxCell id="cXEcaTY2lwT7MXvua-dQ-116" value="" style="shape=partialRectangle;connectable=0;fillColor=none;top=0;left=0;bottom=0;right=0;editable=1;overflow=hidden;" vertex="1" parent="cXEcaTY2lwT7MXvua-dQ-115">
          <mxGeometry width="30" height="30" as="geometry" />
        </mxCell>
        <mxCell id="cXEcaTY2lwT7MXvua-dQ-117" value="Date" style="shape=partialRectangle;connectable=0;fillColor=none;top=0;left=0;bottom=0;right=0;align=left;spacingLeft=6;overflow=hidden;" vertex="1" parent="cXEcaTY2lwT7MXvua-dQ-115">
          <mxGeometry x="30" width="150" height="30" as="geometry" />
        </mxCell>
        <mxCell id="cXEcaTY2lwT7MXvua-dQ-118" value="" style="shape=partialRectangle;collapsible=0;dropTarget=0;pointerEvents=0;fillColor=none;top=0;left=0;bottom=0;right=0;points=[[0,0.5],[1,0.5]];portConstraint=eastwest;" vertex="1" parent="cXEcaTY2lwT7MXvua-dQ-111">
          <mxGeometry y="90" width="180" height="30" as="geometry" />
        </mxCell>
        <mxCell id="cXEcaTY2lwT7MXvua-dQ-119" value="" style="shape=partialRectangle;connectable=0;fillColor=none;top=0;left=0;bottom=0;right=0;editable=1;overflow=hidden;" vertex="1" parent="cXEcaTY2lwT7MXvua-dQ-118">
          <mxGeometry width="30" height="30" as="geometry" />
        </mxCell>
        <mxCell id="cXEcaTY2lwT7MXvua-dQ-120" value="Body" style="shape=partialRectangle;connectable=0;fillColor=none;top=0;left=0;bottom=0;right=0;align=left;spacingLeft=6;overflow=hidden;" vertex="1" parent="cXEcaTY2lwT7MXvua-dQ-118">
          <mxGeometry x="30" width="150" height="30" as="geometry" />
        </mxCell>
        <mxCell id="cXEcaTY2lwT7MXvua-dQ-121" value="" style="shape=partialRectangle;collapsible=0;dropTarget=0;pointerEvents=0;fillColor=none;top=0;left=0;bottom=0;right=0;points=[[0,0.5],[1,0.5]];portConstraint=eastwest;" vertex="1" parent="cXEcaTY2lwT7MXvua-dQ-111">
          <mxGeometry y="120" width="180" height="30" as="geometry" />
        </mxCell>
        <mxCell id="cXEcaTY2lwT7MXvua-dQ-122" value="FK" style="shape=partialRectangle;connectable=0;fillColor=none;top=0;left=0;bottom=0;right=0;fontStyle=0;overflow=hidden;" vertex="1" parent="cXEcaTY2lwT7MXvua-dQ-121">
          <mxGeometry width="30" height="30" as="geometry" />
        </mxCell>
        <mxCell id="cXEcaTY2lwT7MXvua-dQ-123" value="AnswerId" style="shape=partialRectangle;connectable=0;fillColor=none;top=0;left=0;bottom=0;right=0;align=left;spacingLeft=6;fontStyle=0;overflow=hidden;" vertex="1" parent="cXEcaTY2lwT7MXvua-dQ-121">
          <mxGeometry x="30" width="150" height="30" as="geometry" />
        </mxCell>
        <mxCell id="cXEcaTY2lwT7MXvua-dQ-124" value="" style="shape=partialRectangle;collapsible=0;dropTarget=0;pointerEvents=0;fillColor=none;top=0;left=0;bottom=0;right=0;points=[[0,0.5],[1,0.5]];portConstraint=eastwest;" vertex="1" parent="cXEcaTY2lwT7MXvua-dQ-111">
          <mxGeometry y="150" width="180" height="30" as="geometry" />
        </mxCell>
        <mxCell id="cXEcaTY2lwT7MXvua-dQ-125" value="FK" style="shape=partialRectangle;connectable=0;fillColor=none;top=0;left=0;bottom=0;right=0;editable=1;overflow=hidden;" vertex="1" parent="cXEcaTY2lwT7MXvua-dQ-124">
          <mxGeometry width="30" height="30" as="geometry" />
        </mxCell>
        <mxCell id="cXEcaTY2lwT7MXvua-dQ-126" value="AuthorId" style="shape=partialRectangle;connectable=0;fillColor=none;top=0;left=0;bottom=0;right=0;align=left;spacingLeft=6;overflow=hidden;" vertex="1" parent="cXEcaTY2lwT7MXvua-dQ-124">
          <mxGeometry x="30" width="150" height="30" as="geometry" />
        </mxCell>
        <mxCell id="cXEcaTY2lwT7MXvua-dQ-127" value="Users" style="shape=table;startSize=30;container=1;collapsible=1;childLayout=tableLayout;fixedRows=1;rowLines=0;fontStyle=1;align=center;resizeLast=1;fillColor=#dae8fc;strokeColor=#6c8ebf;shadow=0;" vertex="1" parent="1">
          <mxGeometry x="-800" y="100" width="180" height="120" as="geometry" />
        </mxCell>
        <mxCell id="cXEcaTY2lwT7MXvua-dQ-128" value="" style="shape=partialRectangle;collapsible=0;dropTarget=0;pointerEvents=0;fillColor=none;top=0;left=0;bottom=1;right=0;points=[[0,0.5],[1,0.5]];portConstraint=eastwest;" vertex="1" parent="cXEcaTY2lwT7MXvua-dQ-127">
          <mxGeometry y="30" width="180" height="30" as="geometry" />
        </mxCell>
        <mxCell id="cXEcaTY2lwT7MXvua-dQ-129" value="PK" style="shape=partialRectangle;connectable=0;fillColor=none;top=0;left=0;bottom=0;right=0;fontStyle=1;overflow=hidden;" vertex="1" parent="cXEcaTY2lwT7MXvua-dQ-128">
          <mxGeometry width="30" height="30" as="geometry" />
        </mxCell>
        <mxCell id="cXEcaTY2lwT7MXvua-dQ-130" value="UserId" style="shape=partialRectangle;connectable=0;fillColor=none;top=0;left=0;bottom=0;right=0;align=left;spacingLeft=6;fontStyle=5;overflow=hidden;" vertex="1" parent="cXEcaTY2lwT7MXvua-dQ-128">
          <mxGeometry x="30" width="150" height="30" as="geometry" />
        </mxCell>
        <mxCell id="cXEcaTY2lwT7MXvua-dQ-131" value="" style="shape=partialRectangle;collapsible=0;dropTarget=0;pointerEvents=0;fillColor=none;top=0;left=0;bottom=0;right=0;points=[[0,0.5],[1,0.5]];portConstraint=eastwest;" vertex="1" parent="cXEcaTY2lwT7MXvua-dQ-127">
          <mxGeometry y="60" width="180" height="30" as="geometry" />
        </mxCell>
        <mxCell id="cXEcaTY2lwT7MXvua-dQ-132" value="" style="shape=partialRectangle;connectable=0;fillColor=none;top=0;left=0;bottom=0;right=0;editable=1;overflow=hidden;" vertex="1" parent="cXEcaTY2lwT7MXvua-dQ-131">
          <mxGeometry width="30" height="30" as="geometry" />
        </mxCell>
        <mxCell id="cXEcaTY2lwT7MXvua-dQ-133" value="Name" style="shape=partialRectangle;connectable=0;fillColor=none;top=0;left=0;bottom=0;right=0;align=left;spacingLeft=6;overflow=hidden;" vertex="1" parent="cXEcaTY2lwT7MXvua-dQ-131">
          <mxGeometry x="30" width="150" height="30" as="geometry" />
        </mxCell>
        <mxCell id="cXEcaTY2lwT7MXvua-dQ-134" value="" style="shape=partialRectangle;collapsible=0;dropTarget=0;pointerEvents=0;fillColor=none;top=0;left=0;bottom=0;right=0;points=[[0,0.5],[1,0.5]];portConstraint=eastwest;" vertex="1" parent="cXEcaTY2lwT7MXvua-dQ-127">
          <mxGeometry y="90" width="180" height="30" as="geometry" />
        </mxCell>
        <mxCell id="cXEcaTY2lwT7MXvua-dQ-135" value="" style="shape=partialRectangle;connectable=0;fillColor=none;top=0;left=0;bottom=0;right=0;editable=1;overflow=hidden;" vertex="1" parent="cXEcaTY2lwT7MXvua-dQ-134">
          <mxGeometry width="30" height="30" as="geometry" />
        </mxCell>
        <mxCell id="cXEcaTY2lwT7MXvua-dQ-136" value="Email" style="shape=partialRectangle;connectable=0;fillColor=none;top=0;left=0;bottom=0;right=0;align=left;spacingLeft=6;overflow=hidden;" vertex="1" parent="cXEcaTY2lwT7MXvua-dQ-134">
          <mxGeometry x="30" width="150" height="30" as="geometry" />
        </mxCell>
        <mxCell id="cXEcaTY2lwT7MXvua-dQ-137" style="edgeStyle=orthogonalEdgeStyle;rounded=0;orthogonalLoop=1;jettySize=auto;html=1;exitX=0;exitY=0.5;exitDx=0;exitDy=0;entryX=0;entryY=0.5;entryDx=0;entryDy=0;startArrow=ERmandOne;startFill=0;endArrow=ERoneToMany;endFill=0;" edge="1" parent="1" source="cXEcaTY2lwT7MXvua-dQ-105" target="cXEcaTY2lwT7MXvua-dQ-92">
          <mxGeometry relative="1" as="geometry" />
        </mxCell>
        <mxCell id="cXEcaTY2lwT7MXvua-dQ-138" style="edgeStyle=orthogonalEdgeStyle;rounded=0;orthogonalLoop=1;jettySize=auto;html=1;exitX=1;exitY=0.5;exitDx=0;exitDy=0;entryX=0;entryY=0.5;entryDx=0;entryDy=0;startArrow=ERmandOne;startFill=0;endArrow=ERzeroToMany;endFill=1;" edge="1" parent="1" source="cXEcaTY2lwT7MXvua-dQ-48" target="cXEcaTY2lwT7MXvua-dQ-85">
          <mxGeometry relative="1" as="geometry">
            <Array as="points">
              <mxPoint x="-550" y="305" />
              <mxPoint x="-550" y="665" />
            </Array>
          </mxGeometry>
        </mxCell>
        <mxCell id="cXEcaTY2lwT7MXvua-dQ-139" style="edgeStyle=orthogonalEdgeStyle;rounded=0;orthogonalLoop=1;jettySize=auto;html=1;exitX=1;exitY=0.5;exitDx=0;exitDy=0;entryX=0;entryY=0.5;entryDx=0;entryDy=0;startArrow=ERmandOne;startFill=0;endArrow=ERzeroToMany;endFill=1;jumpStyle=arc;" edge="1" parent="1" source="cXEcaTY2lwT7MXvua-dQ-128" target="cXEcaTY2lwT7MXvua-dQ-82">
          <mxGeometry relative="1" as="geometry">
            <Array as="points">
              <mxPoint x="-530" y="145" />
              <mxPoint x="-530" y="635" />
            </Array>
          </mxGeometry>
        </mxCell>
        <mxCell id="cXEcaTY2lwT7MXvua-dQ-140" style="edgeStyle=orthogonalEdgeStyle;rounded=0;orthogonalLoop=1;jettySize=auto;html=1;exitX=0;exitY=0.5;exitDx=0;exitDy=0;entryX=0;entryY=0.5;entryDx=0;entryDy=0;startArrow=ERmandOne;startFill=0;endArrow=ERzeroToMany;endFill=1;" edge="1" parent="1" source="cXEcaTY2lwT7MXvua-dQ-48" target="cXEcaTY2lwT7MXvua-dQ-41">
          <mxGeometry relative="1" as="geometry">
            <Array as="points">
              <mxPoint x="-830" y="305" />
              <mxPoint x="-830" y="665" />
            </Array>
          </mxGeometry>
        </mxCell>
        <mxCell id="cXEcaTY2lwT7MXvua-dQ-141" style="edgeStyle=orthogonalEdgeStyle;rounded=0;orthogonalLoop=1;jettySize=auto;html=1;exitX=0;exitY=0.5;exitDx=0;exitDy=0;entryX=0;entryY=0.5;entryDx=0;entryDy=0;startArrow=ERmandOne;startFill=0;endArrow=ERzeroToMany;endFill=1;jumpStyle=arc;" edge="1" parent="1" source="cXEcaTY2lwT7MXvua-dQ-70" target="cXEcaTY2lwT7MXvua-dQ-121">
          <mxGeometry relative="1" as="geometry">
            <Array as="points">
              <mxPoint x="-510" y="515" />
              <mxPoint x="-510" y="365" />
            </Array>
          </mxGeometry>
        </mxCell>
        <mxCell id="cXEcaTY2lwT7MXvua-dQ-142" style="edgeStyle=orthogonalEdgeStyle;rounded=0;orthogonalLoop=1;jettySize=auto;html=1;exitX=1;exitY=0.5;exitDx=0;exitDy=0;startArrow=ERmandOne;startFill=0;endArrow=ERzeroToMany;endFill=1;entryX=1;entryY=0.5;entryDx=0;entryDy=0;jumpStyle=arc;" edge="1" parent="1" source="cXEcaTY2lwT7MXvua-dQ-128" target="cXEcaTY2lwT7MXvua-dQ-124">
          <mxGeometry relative="1" as="geometry">
            <mxPoint x="-100" y="480" as="targetPoint" />
            <Array as="points">
              <mxPoint x="-290" y="145" />
              <mxPoint x="-290" y="395" />
            </Array>
          </mxGeometry>
        </mxCell>
        <mxCell id="cXEcaTY2lwT7MXvua-dQ-143" style="edgeStyle=orthogonalEdgeStyle;rounded=0;orthogonalLoop=1;jettySize=auto;html=1;exitX=1;exitY=0.5;exitDx=0;exitDy=0;entryX=0;entryY=0.5;entryDx=0;entryDy=0;startArrow=ERmandOne;startFill=0;endArrow=ERzeroToMany;endFill=1;jumpStyle=gap;jumpSize=10;" edge="1" parent="1" source="cXEcaTY2lwT7MXvua-dQ-89" target="cXEcaTY2lwT7MXvua-dQ-66">
          <mxGeometry relative="1" as="geometry" />
        </mxCell>
        <mxCell id="cXEcaTY2lwT7MXvua-dQ-144" style="edgeStyle=orthogonalEdgeStyle;rounded=0;orthogonalLoop=1;jettySize=auto;html=1;entryX=0;entryY=0.5;entryDx=0;entryDy=0;startArrow=ERmandOne;startFill=0;endArrow=ERzeroToMany;endFill=1;jumpStyle=gap;jumpSize=10;" edge="1" parent="1" target="cXEcaTY2lwT7MXvua-dQ-63">
          <mxGeometry relative="1" as="geometry">
            <Array as="points">
              <mxPoint x="-850" y="145" />
              <mxPoint x="-850" y="455" />
            </Array>
            <mxPoint x="-800" y="145" as="sourcePoint" />
          </mxGeometry>
        </mxCell>
        <mxCell id="cXEcaTY2lwT7MXvua-dQ-180" style="edgeStyle=none;rounded=0;orthogonalLoop=1;jettySize=auto;html=1;exitX=0;exitY=0.5;exitDx=0;exitDy=0;entryX=0.731;entryY=0.069;entryDx=0;entryDy=0;startArrow=none;startFill=0;endArrow=none;endFill=0;entryPerimeter=0;" edge="1" parent="1" source="cXEcaTY2lwT7MXvua-dQ-153" target="cXEcaTY2lwT7MXvua-dQ-179">
          <mxGeometry relative="1" as="geometry" />
        </mxCell>
        <mxCell id="cXEcaTY2lwT7MXvua-dQ-192" style="edgeStyle=none;rounded=0;orthogonalLoop=1;jettySize=auto;html=1;exitX=1;exitY=0.5;exitDx=0;exitDy=0;entryX=0.492;entryY=-0.015;entryDx=0;entryDy=0;entryPerimeter=0;startArrow=none;startFill=0;endArrow=none;endFill=0;" edge="1" parent="1" source="cXEcaTY2lwT7MXvua-dQ-153" target="cXEcaTY2lwT7MXvua-dQ-191">
          <mxGeometry relative="1" as="geometry" />
        </mxCell>
        <mxCell id="cXEcaTY2lwT7MXvua-dQ-153" value="View Questions" style="ellipse;whiteSpace=wrap;html=1;shadow=0;align=center;" vertex="1" parent="1">
          <mxGeometry x="-1960" y="220" width="120" height="40" as="geometry" />
        </mxCell>
        <mxCell id="cXEcaTY2lwT7MXvua-dQ-181" style="edgeStyle=none;rounded=0;orthogonalLoop=1;jettySize=auto;html=1;exitX=0;exitY=0.5;exitDx=0;exitDy=0;entryX=0.831;entryY=0.154;entryDx=0;entryDy=0;startArrow=none;startFill=0;endArrow=none;endFill=0;entryPerimeter=0;" edge="1" parent="1" source="cXEcaTY2lwT7MXvua-dQ-156" target="cXEcaTY2lwT7MXvua-dQ-179">
          <mxGeometry relative="1" as="geometry" />
        </mxCell>
        <mxCell id="cXEcaTY2lwT7MXvua-dQ-193" style="edgeStyle=none;rounded=0;orthogonalLoop=1;jettySize=auto;html=1;exitX=1;exitY=0.5;exitDx=0;exitDy=0;entryX=0.392;entryY=0.023;entryDx=0;entryDy=0;entryPerimeter=0;startArrow=none;startFill=0;endArrow=none;endFill=0;" edge="1" parent="1" source="cXEcaTY2lwT7MXvua-dQ-156" target="cXEcaTY2lwT7MXvua-dQ-191">
          <mxGeometry relative="1" as="geometry" />
        </mxCell>
        <mxCell id="cXEcaTY2lwT7MXvua-dQ-156" value="Ask Questions" style="ellipse;whiteSpace=wrap;html=1;shadow=0;align=center;" vertex="1" parent="1">
          <mxGeometry x="-1960" y="275" width="120" height="40" as="geometry" />
        </mxCell>
        <mxCell id="cXEcaTY2lwT7MXvua-dQ-194" style="edgeStyle=none;rounded=0;orthogonalLoop=1;jettySize=auto;html=1;exitX=1;exitY=0.5;exitDx=0;exitDy=0;entryX=0.3;entryY=0.046;entryDx=0;entryDy=0;entryPerimeter=0;startArrow=none;startFill=0;endArrow=none;endFill=0;" edge="1" parent="1" source="cXEcaTY2lwT7MXvua-dQ-157" target="cXEcaTY2lwT7MXvua-dQ-191">
          <mxGeometry relative="1" as="geometry" />
        </mxCell>
        <mxCell id="cXEcaTY2lwT7MXvua-dQ-157" value="View Answers" style="ellipse;whiteSpace=wrap;html=1;shadow=0;align=center;" vertex="1" parent="1">
          <mxGeometry x="-1960" y="330" width="120" height="40" as="geometry" />
        </mxCell>
        <mxCell id="cXEcaTY2lwT7MXvua-dQ-183" style="edgeStyle=none;rounded=0;orthogonalLoop=1;jettySize=auto;html=1;exitX=0;exitY=0.5;exitDx=0;exitDy=0;entryX=0.946;entryY=0.292;entryDx=0;entryDy=0;startArrow=none;startFill=0;endArrow=none;endFill=0;entryPerimeter=0;" edge="1" parent="1" source="cXEcaTY2lwT7MXvua-dQ-158" target="cXEcaTY2lwT7MXvua-dQ-179">
          <mxGeometry relative="1" as="geometry" />
        </mxCell>
        <mxCell id="cXEcaTY2lwT7MXvua-dQ-203" style="edgeStyle=none;rounded=0;orthogonalLoop=1;jettySize=auto;html=1;exitX=1;exitY=0.5;exitDx=0;exitDy=0;entryX=0.208;entryY=0.077;entryDx=0;entryDy=0;entryPerimeter=0;startArrow=none;startFill=0;endArrow=none;endFill=0;" edge="1" parent="1" source="cXEcaTY2lwT7MXvua-dQ-158" target="cXEcaTY2lwT7MXvua-dQ-191">
          <mxGeometry relative="1" as="geometry" />
        </mxCell>
        <mxCell id="cXEcaTY2lwT7MXvua-dQ-158" value="Answer Questions" style="ellipse;whiteSpace=wrap;html=1;shadow=0;align=center;" vertex="1" parent="1">
          <mxGeometry x="-1960" y="380" width="120" height="40" as="geometry" />
        </mxCell>
        <mxCell id="cXEcaTY2lwT7MXvua-dQ-184" style="edgeStyle=none;rounded=0;orthogonalLoop=1;jettySize=auto;html=1;exitX=0;exitY=0.5;exitDx=0;exitDy=0;entryX=1;entryY=0.377;entryDx=0;entryDy=0;startArrow=none;startFill=0;endArrow=none;endFill=0;entryPerimeter=0;" edge="1" parent="1" source="cXEcaTY2lwT7MXvua-dQ-159" target="cXEcaTY2lwT7MXvua-dQ-179">
          <mxGeometry relative="1" as="geometry" />
        </mxCell>
        <mxCell id="cXEcaTY2lwT7MXvua-dQ-202" style="edgeStyle=none;rounded=0;orthogonalLoop=1;jettySize=auto;html=1;exitX=1;exitY=0.5;exitDx=0;exitDy=0;entryX=0.162;entryY=0.154;entryDx=0;entryDy=0;entryPerimeter=0;startArrow=none;startFill=0;endArrow=none;endFill=0;" edge="1" parent="1" source="cXEcaTY2lwT7MXvua-dQ-159" target="cXEcaTY2lwT7MXvua-dQ-191">
          <mxGeometry relative="1" as="geometry" />
        </mxCell>
        <mxCell id="cXEcaTY2lwT7MXvua-dQ-159" value="Search Questions" style="ellipse;whiteSpace=wrap;html=1;shadow=0;align=center;" vertex="1" parent="1">
          <mxGeometry x="-1960" y="430" width="120" height="40" as="geometry" />
        </mxCell>
        <mxCell id="cXEcaTY2lwT7MXvua-dQ-185" style="edgeStyle=none;rounded=0;orthogonalLoop=1;jettySize=auto;html=1;exitX=0;exitY=0.5;exitDx=0;exitDy=0;entryX=1;entryY=0.462;entryDx=0;entryDy=0;startArrow=none;startFill=0;endArrow=none;endFill=0;entryPerimeter=0;" edge="1" parent="1" source="cXEcaTY2lwT7MXvua-dQ-160" target="cXEcaTY2lwT7MXvua-dQ-179">
          <mxGeometry relative="1" as="geometry" />
        </mxCell>
        <mxCell id="cXEcaTY2lwT7MXvua-dQ-201" style="edgeStyle=none;rounded=0;orthogonalLoop=1;jettySize=auto;html=1;exitX=1;exitY=0.5;exitDx=0;exitDy=0;entryX=0.108;entryY=0.215;entryDx=0;entryDy=0;entryPerimeter=0;startArrow=none;startFill=0;endArrow=none;endFill=0;" edge="1" parent="1" source="cXEcaTY2lwT7MXvua-dQ-160" target="cXEcaTY2lwT7MXvua-dQ-191">
          <mxGeometry relative="1" as="geometry" />
        </mxCell>
        <mxCell id="cXEcaTY2lwT7MXvua-dQ-160" value="Filter Modules" style="ellipse;whiteSpace=wrap;html=1;shadow=0;align=center;" vertex="1" parent="1">
          <mxGeometry x="-1960" y="480" width="120" height="40" as="geometry" />
        </mxCell>
        <mxCell id="cXEcaTY2lwT7MXvua-dQ-186" style="edgeStyle=none;rounded=0;orthogonalLoop=1;jettySize=auto;html=1;exitX=0;exitY=0.5;exitDx=0;exitDy=0;entryX=1.008;entryY=0.515;entryDx=0;entryDy=0;startArrow=none;startFill=0;endArrow=none;endFill=0;entryPerimeter=0;" edge="1" parent="1" source="cXEcaTY2lwT7MXvua-dQ-161" target="cXEcaTY2lwT7MXvua-dQ-179">
          <mxGeometry relative="1" as="geometry" />
        </mxCell>
        <mxCell id="cXEcaTY2lwT7MXvua-dQ-200" style="edgeStyle=none;rounded=0;orthogonalLoop=1;jettySize=auto;html=1;exitX=1;exitY=0.5;exitDx=0;exitDy=0;entryX=0.062;entryY=0.3;entryDx=0;entryDy=0;entryPerimeter=0;startArrow=none;startFill=0;endArrow=none;endFill=0;" edge="1" parent="1" source="cXEcaTY2lwT7MXvua-dQ-161" target="cXEcaTY2lwT7MXvua-dQ-191">
          <mxGeometry relative="1" as="geometry" />
        </mxCell>
        <mxCell id="cXEcaTY2lwT7MXvua-dQ-161" value="Filter Courses" style="ellipse;whiteSpace=wrap;html=1;shadow=0;align=center;" vertex="1" parent="1">
          <mxGeometry x="-1960" y="530" width="120" height="40" as="geometry" />
        </mxCell>
        <mxCell id="cXEcaTY2lwT7MXvua-dQ-217" style="edgeStyle=none;rounded=0;orthogonalLoop=1;jettySize=auto;html=1;exitX=1;exitY=0.5;exitDx=0;exitDy=0;entryX=0.254;entryY=0.985;entryDx=0;entryDy=0;entryPerimeter=0;startArrow=none;startFill=0;endArrow=none;endFill=0;" edge="1" parent="1" source="cXEcaTY2lwT7MXvua-dQ-162" target="cXEcaTY2lwT7MXvua-dQ-191">
          <mxGeometry relative="1" as="geometry" />
        </mxCell>
        <mxCell id="cXEcaTY2lwT7MXvua-dQ-162" value="Create Modules" style="ellipse;whiteSpace=wrap;html=1;shadow=0;align=center;" vertex="1" parent="1">
          <mxGeometry x="-1960" y="935" width="120" height="40" as="geometry" />
        </mxCell>
        <mxCell id="cXEcaTY2lwT7MXvua-dQ-218" style="edgeStyle=none;rounded=0;orthogonalLoop=1;jettySize=auto;html=1;exitX=1;exitY=0.5;exitDx=0;exitDy=0;entryX=0.362;entryY=1.008;entryDx=0;entryDy=0;entryPerimeter=0;startArrow=none;startFill=0;endArrow=none;endFill=0;" edge="1" parent="1" source="cXEcaTY2lwT7MXvua-dQ-163" target="cXEcaTY2lwT7MXvua-dQ-191">
          <mxGeometry relative="1" as="geometry" />
        </mxCell>
        <mxCell id="cXEcaTY2lwT7MXvua-dQ-163" value="Create Courses" style="ellipse;whiteSpace=wrap;html=1;shadow=0;align=center;" vertex="1" parent="1">
          <mxGeometry x="-1960" y="990" width="120" height="40" as="geometry" />
        </mxCell>
        <mxCell id="cXEcaTY2lwT7MXvua-dQ-187" style="edgeStyle=none;rounded=0;orthogonalLoop=1;jettySize=auto;html=1;exitX=0;exitY=0.5;exitDx=0;exitDy=0;entryX=0.992;entryY=0.592;entryDx=0;entryDy=0;startArrow=none;startFill=0;endArrow=none;endFill=0;entryPerimeter=0;" edge="1" parent="1" source="cXEcaTY2lwT7MXvua-dQ-164" target="cXEcaTY2lwT7MXvua-dQ-179">
          <mxGeometry relative="1" as="geometry" />
        </mxCell>
        <mxCell id="cXEcaTY2lwT7MXvua-dQ-199" style="edgeStyle=none;rounded=0;orthogonalLoop=1;jettySize=auto;html=1;exitX=1;exitY=0.5;exitDx=0;exitDy=0;entryX=0.008;entryY=0.4;entryDx=0;entryDy=0;entryPerimeter=0;startArrow=none;startFill=0;endArrow=none;endFill=0;" edge="1" parent="1" source="cXEcaTY2lwT7MXvua-dQ-164" target="cXEcaTY2lwT7MXvua-dQ-191">
          <mxGeometry relative="1" as="geometry" />
        </mxCell>
        <mxCell id="cXEcaTY2lwT7MXvua-dQ-164" value="Vote on Questions" style="ellipse;whiteSpace=wrap;html=1;shadow=0;align=center;" vertex="1" parent="1">
          <mxGeometry x="-1960" y="580" width="120" height="40" as="geometry" />
        </mxCell>
        <mxCell id="cXEcaTY2lwT7MXvua-dQ-188" style="edgeStyle=none;rounded=0;orthogonalLoop=1;jettySize=auto;html=1;exitX=0;exitY=0.5;exitDx=0;exitDy=0;entryX=0.969;entryY=0.669;entryDx=0;entryDy=0;startArrow=none;startFill=0;endArrow=none;endFill=0;entryPerimeter=0;" edge="1" parent="1" source="cXEcaTY2lwT7MXvua-dQ-165" target="cXEcaTY2lwT7MXvua-dQ-179">
          <mxGeometry relative="1" as="geometry" />
        </mxCell>
        <mxCell id="cXEcaTY2lwT7MXvua-dQ-198" style="edgeStyle=none;rounded=0;orthogonalLoop=1;jettySize=auto;html=1;exitX=1;exitY=0.5;exitDx=0;exitDy=0;entryX=0;entryY=0.5;entryDx=0;entryDy=0;startArrow=none;startFill=0;endArrow=none;endFill=0;" edge="1" parent="1" source="cXEcaTY2lwT7MXvua-dQ-165" target="cXEcaTY2lwT7MXvua-dQ-191">
          <mxGeometry relative="1" as="geometry" />
        </mxCell>
        <mxCell id="cXEcaTY2lwT7MXvua-dQ-165" value="Vote on Answers" style="ellipse;whiteSpace=wrap;html=1;shadow=0;align=center;" vertex="1" parent="1">
          <mxGeometry x="-1960" y="630" width="120" height="40" as="geometry" />
        </mxCell>
        <mxCell id="cXEcaTY2lwT7MXvua-dQ-189" style="edgeStyle=none;rounded=0;orthogonalLoop=1;jettySize=auto;html=1;exitX=0;exitY=0.5;exitDx=0;exitDy=0;entryX=0.915;entryY=0.792;entryDx=0;entryDy=0;startArrow=none;startFill=0;endArrow=none;endFill=0;entryPerimeter=0;" edge="1" parent="1" source="cXEcaTY2lwT7MXvua-dQ-166" target="cXEcaTY2lwT7MXvua-dQ-179">
          <mxGeometry relative="1" as="geometry" />
        </mxCell>
        <mxCell id="cXEcaTY2lwT7MXvua-dQ-204" style="edgeStyle=none;rounded=0;orthogonalLoop=1;jettySize=auto;html=1;exitX=1;exitY=0.5;exitDx=0;exitDy=0;entryX=0.008;entryY=0.615;entryDx=0;entryDy=0;entryPerimeter=0;startArrow=none;startFill=0;endArrow=none;endFill=0;" edge="1" parent="1" source="cXEcaTY2lwT7MXvua-dQ-166" target="cXEcaTY2lwT7MXvua-dQ-191">
          <mxGeometry relative="1" as="geometry" />
        </mxCell>
        <mxCell id="cXEcaTY2lwT7MXvua-dQ-212" style="edgeStyle=none;rounded=0;orthogonalLoop=1;jettySize=auto;html=1;exitX=0;exitY=0.5;exitDx=0;exitDy=0;entryX=0.969;entryY=0.315;entryDx=0;entryDy=0;entryPerimeter=0;startArrow=none;startFill=0;endArrow=none;endFill=0;" edge="1" parent="1" source="cXEcaTY2lwT7MXvua-dQ-166" target="cXEcaTY2lwT7MXvua-dQ-211">
          <mxGeometry relative="1" as="geometry" />
        </mxCell>
        <mxCell id="cXEcaTY2lwT7MXvua-dQ-166" value="Comment on Questions" style="ellipse;whiteSpace=wrap;html=1;shadow=0;align=center;" vertex="1" parent="1">
          <mxGeometry x="-1960" y="680" width="120" height="40" as="geometry" />
        </mxCell>
        <mxCell id="cXEcaTY2lwT7MXvua-dQ-190" style="edgeStyle=none;rounded=0;orthogonalLoop=1;jettySize=auto;html=1;exitX=0;exitY=0.5;exitDx=0;exitDy=0;entryX=0.831;entryY=0.908;entryDx=0;entryDy=0;startArrow=none;startFill=0;endArrow=none;endFill=0;entryPerimeter=0;" edge="1" parent="1" source="cXEcaTY2lwT7MXvua-dQ-167" target="cXEcaTY2lwT7MXvua-dQ-179">
          <mxGeometry relative="1" as="geometry" />
        </mxCell>
        <mxCell id="cXEcaTY2lwT7MXvua-dQ-205" style="edgeStyle=none;rounded=0;orthogonalLoop=1;jettySize=auto;html=1;exitX=1;exitY=0.5;exitDx=0;exitDy=0;entryX=0.046;entryY=0.7;entryDx=0;entryDy=0;entryPerimeter=0;startArrow=none;startFill=0;endArrow=none;endFill=0;" edge="1" parent="1" source="cXEcaTY2lwT7MXvua-dQ-167" target="cXEcaTY2lwT7MXvua-dQ-191">
          <mxGeometry relative="1" as="geometry" />
        </mxCell>
        <mxCell id="cXEcaTY2lwT7MXvua-dQ-216" style="edgeStyle=none;rounded=0;orthogonalLoop=1;jettySize=auto;html=1;exitX=0;exitY=0.5;exitDx=0;exitDy=0;entryX=0.992;entryY=0.431;entryDx=0;entryDy=0;entryPerimeter=0;startArrow=none;startFill=0;endArrow=none;endFill=0;" edge="1" parent="1" source="cXEcaTY2lwT7MXvua-dQ-167" target="cXEcaTY2lwT7MXvua-dQ-211">
          <mxGeometry relative="1" as="geometry" />
        </mxCell>
        <mxCell id="cXEcaTY2lwT7MXvua-dQ-167" value="Comment on Answers" style="ellipse;whiteSpace=wrap;html=1;shadow=0;align=center;" vertex="1" parent="1">
          <mxGeometry x="-1960" y="730" width="120" height="40" as="geometry" />
        </mxCell>
        <mxCell id="cXEcaTY2lwT7MXvua-dQ-208" style="edgeStyle=none;rounded=0;orthogonalLoop=1;jettySize=auto;html=1;exitX=1;exitY=0.5;exitDx=0;exitDy=0;entryX=0.069;entryY=0.8;entryDx=0;entryDy=0;entryPerimeter=0;startArrow=none;startFill=0;endArrow=none;endFill=0;" edge="1" parent="1" source="cXEcaTY2lwT7MXvua-dQ-168" target="cXEcaTY2lwT7MXvua-dQ-191">
          <mxGeometry relative="1" as="geometry" />
        </mxCell>
        <mxCell id="cXEcaTY2lwT7MXvua-dQ-213" style="edgeStyle=none;rounded=0;orthogonalLoop=1;jettySize=auto;html=1;exitX=0;exitY=0.5;exitDx=0;exitDy=0;entryX=1;entryY=0.5;entryDx=0;entryDy=0;startArrow=none;startFill=0;endArrow=none;endFill=0;" edge="1" parent="1" source="cXEcaTY2lwT7MXvua-dQ-168" target="cXEcaTY2lwT7MXvua-dQ-211">
          <mxGeometry relative="1" as="geometry" />
        </mxCell>
        <mxCell id="cXEcaTY2lwT7MXvua-dQ-168" value="Delete Questions" style="ellipse;whiteSpace=wrap;html=1;shadow=0;align=center;" vertex="1" parent="1">
          <mxGeometry x="-1960" y="780" width="120" height="40" as="geometry" />
        </mxCell>
        <mxCell id="cXEcaTY2lwT7MXvua-dQ-209" style="edgeStyle=none;rounded=0;orthogonalLoop=1;jettySize=auto;html=1;exitX=1;exitY=0.5;exitDx=0;exitDy=0;entryX=0.108;entryY=0.862;entryDx=0;entryDy=0;entryPerimeter=0;startArrow=none;startFill=0;endArrow=none;endFill=0;" edge="1" parent="1" source="cXEcaTY2lwT7MXvua-dQ-169" target="cXEcaTY2lwT7MXvua-dQ-191">
          <mxGeometry relative="1" as="geometry" />
        </mxCell>
        <mxCell id="cXEcaTY2lwT7MXvua-dQ-214" style="edgeStyle=none;rounded=0;orthogonalLoop=1;jettySize=auto;html=1;exitX=0;exitY=0.5;exitDx=0;exitDy=0;entryX=0.985;entryY=0.608;entryDx=0;entryDy=0;entryPerimeter=0;startArrow=none;startFill=0;endArrow=none;endFill=0;" edge="1" parent="1" source="cXEcaTY2lwT7MXvua-dQ-169" target="cXEcaTY2lwT7MXvua-dQ-211">
          <mxGeometry relative="1" as="geometry" />
        </mxCell>
        <mxCell id="cXEcaTY2lwT7MXvua-dQ-169" value="Delete Answers" style="ellipse;whiteSpace=wrap;html=1;shadow=0;align=center;" vertex="1" parent="1">
          <mxGeometry x="-1960" y="832" width="120" height="40" as="geometry" />
        </mxCell>
        <mxCell id="cXEcaTY2lwT7MXvua-dQ-210" style="edgeStyle=none;rounded=0;orthogonalLoop=1;jettySize=auto;html=1;exitX=1;exitY=0.5;exitDx=0;exitDy=0;startArrow=none;startFill=0;endArrow=none;endFill=0;entryX=0.177;entryY=0.938;entryDx=0;entryDy=0;entryPerimeter=0;" edge="1" parent="1" source="cXEcaTY2lwT7MXvua-dQ-170" target="cXEcaTY2lwT7MXvua-dQ-191">
          <mxGeometry relative="1" as="geometry">
            <mxPoint x="-1640" y="709" as="targetPoint" />
          </mxGeometry>
        </mxCell>
        <mxCell id="cXEcaTY2lwT7MXvua-dQ-215" style="edgeStyle=none;rounded=0;orthogonalLoop=1;jettySize=auto;html=1;exitX=0;exitY=0.5;exitDx=0;exitDy=0;entryX=0.969;entryY=0.708;entryDx=0;entryDy=0;entryPerimeter=0;startArrow=none;startFill=0;endArrow=none;endFill=0;" edge="1" parent="1" source="cXEcaTY2lwT7MXvua-dQ-170" target="cXEcaTY2lwT7MXvua-dQ-211">
          <mxGeometry relative="1" as="geometry" />
        </mxCell>
        <mxCell id="cXEcaTY2lwT7MXvua-dQ-170" value="Delete Comments" style="ellipse;whiteSpace=wrap;html=1;shadow=0;align=center;" vertex="1" parent="1">
          <mxGeometry x="-1960" y="885" width="120" height="40" as="geometry" />
        </mxCell>
        <mxCell id="cXEcaTY2lwT7MXvua-dQ-171" value="Lecturer" style="shape=umlActor;verticalLabelPosition=bottom;verticalAlign=top;html=1;outlineConnect=0;shadow=0;align=center;" vertex="1" parent="1">
          <mxGeometry x="-1630" y="620" width="30" height="60" as="geometry" />
        </mxCell>
        <mxCell id="cXEcaTY2lwT7MXvua-dQ-172" value="Moderator" style="shape=umlActor;verticalLabelPosition=bottom;verticalAlign=top;html=1;outlineConnect=0;shadow=0;align=center;" vertex="1" parent="1">
          <mxGeometry x="-2190" y="760" width="30" height="60" as="geometry" />
        </mxCell>
        <mxCell id="cXEcaTY2lwT7MXvua-dQ-182" style="edgeStyle=none;rounded=0;orthogonalLoop=1;jettySize=auto;html=1;exitX=0.908;exitY=0.215;exitDx=0;exitDy=0;entryX=0;entryY=0.5;entryDx=0;entryDy=0;startArrow=none;startFill=0;endArrow=none;endFill=0;exitPerimeter=0;" edge="1" parent="1" source="cXEcaTY2lwT7MXvua-dQ-179" target="cXEcaTY2lwT7MXvua-dQ-157">
          <mxGeometry relative="1" as="geometry" />
        </mxCell>
        <mxCell id="cXEcaTY2lwT7MXvua-dQ-179" value="" style="ellipse;whiteSpace=wrap;html=1;aspect=fixed;shadow=0;align=center;fillColor=none;strokeColor=none;" vertex="1" parent="1">
          <mxGeometry x="-2240" y="480" width="130" height="130" as="geometry" />
        </mxCell>
        <mxCell id="cXEcaTY2lwT7MXvua-dQ-149" value="Wits Student" style="shape=umlActor;verticalLabelPosition=bottom;verticalAlign=top;html=1;outlineConnect=0;shadow=0;align=center;" vertex="1" parent="1">
          <mxGeometry x="-2190" y="500" width="30" height="60" as="geometry" />
        </mxCell>
        <mxCell id="cXEcaTY2lwT7MXvua-dQ-191" value="" style="ellipse;whiteSpace=wrap;html=1;aspect=fixed;shadow=0;align=center;fillColor=none;strokeColor=none;" vertex="1" parent="1">
          <mxGeometry x="-1680" y="585" width="130" height="130" as="geometry" />
        </mxCell>
        <mxCell id="cXEcaTY2lwT7MXvua-dQ-211" value="" style="ellipse;whiteSpace=wrap;html=1;aspect=fixed;shadow=0;align=center;fillColor=none;strokeColor=none;" vertex="1" parent="1">
          <mxGeometry x="-2240" y="735" width="130" height="130" as="geometry" />
        </mxCell>
        <mxCell id="cXEcaTY2lwT7MXvua-dQ-219" value="Authentication Flow" style="rounded=0;whiteSpace=wrap;html=1;shadow=0;verticalAlign=top;spacing=20;fontStyle=1;dashed=1;align=left;" vertex="1" parent="1">
          <mxGeometry x="-3440" y="60" width="840" height="580" as="geometry" />
        </mxCell>
        <mxCell id="cXEcaTY2lwT7MXvua-dQ-225" value="User opens app" style="edgeStyle=none;rounded=0;orthogonalLoop=1;jettySize=auto;html=1;exitX=1;exitY=0.5;exitDx=0;exitDy=0;entryX=0;entryY=0.5;entryDx=0;entryDy=0;startArrow=none;startFill=0;endArrow=block;endFill=1;" edge="1" parent="1" source="cXEcaTY2lwT7MXvua-dQ-220" target="cXEcaTY2lwT7MXvua-dQ-237">
          <mxGeometry relative="1" as="geometry" />
        </mxCell>
        <mxCell id="cXEcaTY2lwT7MXvua-dQ-220" value="" style="ellipse;whiteSpace=wrap;html=1;aspect=fixed;shadow=0;strokeColor=#000000;align=center;fillColor=#000000;" vertex="1" parent="1">
          <mxGeometry x="-3420" y="145" width="30" height="30" as="geometry" />
        </mxCell>
        <mxCell id="cXEcaTY2lwT7MXvua-dQ-223" value="" style="group" vertex="1" connectable="0" parent="1">
          <mxGeometry x="-3425" y="285" width="40" height="40" as="geometry" />
        </mxCell>
        <mxCell id="cXEcaTY2lwT7MXvua-dQ-221" value="" style="ellipse;whiteSpace=wrap;html=1;aspect=fixed;shadow=0;strokeColor=#000000;align=center;fillColor=#000000;" vertex="1" parent="cXEcaTY2lwT7MXvua-dQ-223">
          <mxGeometry x="5" y="5" width="30" height="30" as="geometry" />
        </mxCell>
        <mxCell id="cXEcaTY2lwT7MXvua-dQ-222" value="" style="ellipse;whiteSpace=wrap;html=1;aspect=fixed;shadow=0;strokeColor=#000000;fillColor=none;align=center;" vertex="1" parent="cXEcaTY2lwT7MXvua-dQ-223">
          <mxGeometry width="40" height="40" as="geometry" />
        </mxCell>
        <mxCell id="cXEcaTY2lwT7MXvua-dQ-227" value="User clicks login" style="edgeStyle=none;rounded=0;orthogonalLoop=1;jettySize=auto;html=1;exitX=0.5;exitY=1;exitDx=0;exitDy=0;entryX=0.5;entryY=0;entryDx=0;entryDy=0;startArrow=none;startFill=0;endArrow=block;endFill=1;" edge="1" parent="1" source="cXEcaTY2lwT7MXvua-dQ-224" target="cXEcaTY2lwT7MXvua-dQ-226">
          <mxGeometry relative="1" as="geometry" />
        </mxCell>
        <mxCell id="cXEcaTY2lwT7MXvua-dQ-224" value="User Logged Out" style="rounded=1;whiteSpace=wrap;html=1;shadow=1;strokeColor=#000000;align=center;fillColor=#FFFFFF;" vertex="1" parent="1">
          <mxGeometry x="-2880" y="115" width="120" height="60" as="geometry" />
        </mxCell>
        <mxCell id="cXEcaTY2lwT7MXvua-dQ-229" value="[Not Authenticated]&lt;br&gt;Federates Login Request" style="edgeStyle=none;rounded=0;orthogonalLoop=1;jettySize=auto;html=1;exitX=0.5;exitY=1;exitDx=0;exitDy=0;startArrow=none;startFill=0;endArrow=block;endFill=1;entryX=0.5;entryY=0;entryDx=0;entryDy=0;" edge="1" parent="1" source="cXEcaTY2lwT7MXvua-dQ-226" target="cXEcaTY2lwT7MXvua-dQ-228">
          <mxGeometry relative="1" as="geometry">
            <mxPoint x="-3220" y="470" as="targetPoint" />
          </mxGeometry>
        </mxCell>
        <mxCell id="cXEcaTY2lwT7MXvua-dQ-242" style="edgeStyle=orthogonalEdgeStyle;rounded=0;orthogonalLoop=1;jettySize=auto;html=1;exitX=0;exitY=0.75;exitDx=0;exitDy=0;entryX=1;entryY=0.5;entryDx=0;entryDy=0;startArrow=none;startFill=0;endArrow=block;endFill=1;" edge="1" parent="1" source="cXEcaTY2lwT7MXvua-dQ-226" target="cXEcaTY2lwT7MXvua-dQ-241">
          <mxGeometry relative="1" as="geometry" />
        </mxCell>
        <mxCell id="cXEcaTY2lwT7MXvua-dQ-243" value="[Authenticated]&lt;br&gt;Provide Session Cookie" style="edgeLabel;html=1;align=center;verticalAlign=middle;resizable=0;points=[];" vertex="1" connectable="0" parent="cXEcaTY2lwT7MXvua-dQ-242">
          <mxGeometry x="0.2292" relative="1" as="geometry">
            <mxPoint x="23" as="offset" />
          </mxGeometry>
        </mxCell>
        <mxCell id="cXEcaTY2lwT7MXvua-dQ-226" value="Firebase [Authenticating]" style="rounded=1;whiteSpace=wrap;html=1;shadow=1;strokeColor=#000000;align=center;fillColor=#FFFFFF;" vertex="1" parent="1">
          <mxGeometry x="-2880" y="234" width="120" height="95" as="geometry" />
        </mxCell>
        <mxCell id="cXEcaTY2lwT7MXvua-dQ-231" style="edgeStyle=none;rounded=0;orthogonalLoop=1;jettySize=auto;html=1;exitX=0.5;exitY=1;exitDx=0;exitDy=0;startArrow=none;startFill=0;endArrow=block;endFill=1;entryX=0.5;entryY=0;entryDx=0;entryDy=0;" edge="1" parent="1" source="cXEcaTY2lwT7MXvua-dQ-228" target="cXEcaTY2lwT7MXvua-dQ-230">
          <mxGeometry relative="1" as="geometry">
            <mxPoint x="-2820" y="570" as="targetPoint" />
          </mxGeometry>
        </mxCell>
        <mxCell id="cXEcaTY2lwT7MXvua-dQ-236" value="[Not Authenticated]&lt;br&gt;Redirect to Google Login Screen" style="edgeLabel;html=1;align=center;verticalAlign=middle;resizable=0;points=[];" vertex="1" connectable="0" parent="cXEcaTY2lwT7MXvua-dQ-231">
          <mxGeometry x="-0.2208" y="-1" relative="1" as="geometry">
            <mxPoint x="1" y="5" as="offset" />
          </mxGeometry>
        </mxCell>
        <mxCell id="cXEcaTY2lwT7MXvua-dQ-234" style="edgeStyle=orthogonalEdgeStyle;rounded=0;orthogonalLoop=1;jettySize=auto;html=1;exitX=1;exitY=0.5;exitDx=0;exitDy=0;entryX=1;entryY=0.5;entryDx=0;entryDy=0;startArrow=none;startFill=0;endArrow=block;endFill=1;" edge="1" parent="1" source="cXEcaTY2lwT7MXvua-dQ-228" target="cXEcaTY2lwT7MXvua-dQ-226">
          <mxGeometry relative="1" as="geometry">
            <Array as="points">
              <mxPoint x="-2760" y="450" />
              <mxPoint x="-2670" y="450" />
              <mxPoint x="-2670" y="281" />
              <mxPoint x="-2760" y="281" />
            </Array>
          </mxGeometry>
        </mxCell>
        <mxCell id="cXEcaTY2lwT7MXvua-dQ-235" value="[Authenticated]&lt;br&gt;Returns Auth Token" style="edgeLabel;html=1;align=center;verticalAlign=middle;resizable=0;points=[];" vertex="1" connectable="0" parent="cXEcaTY2lwT7MXvua-dQ-234">
          <mxGeometry x="0.1914" y="-1" relative="1" as="geometry">
            <mxPoint y="33" as="offset" />
          </mxGeometry>
        </mxCell>
        <mxCell id="cXEcaTY2lwT7MXvua-dQ-228" value="Google oAuth [Authenticating]" style="rounded=1;whiteSpace=wrap;html=1;shadow=1;strokeColor=#000000;align=center;fillColor=#FFFFFF;" vertex="1" parent="1">
          <mxGeometry x="-2880" y="400" width="120" height="60" as="geometry" />
        </mxCell>
        <mxCell id="cXEcaTY2lwT7MXvua-dQ-248" value="User Provides Credentials" style="edgeStyle=orthogonalEdgeStyle;rounded=0;orthogonalLoop=1;jettySize=auto;html=1;exitX=0;exitY=0.5;exitDx=0;exitDy=0;entryX=0;entryY=0.5;entryDx=0;entryDy=0;startArrow=none;startFill=0;endArrow=block;endFill=1;" edge="1" parent="1" source="cXEcaTY2lwT7MXvua-dQ-230" target="cXEcaTY2lwT7MXvua-dQ-228">
          <mxGeometry x="0.0857" relative="1" as="geometry">
            <Array as="points">
              <mxPoint x="-2980" y="580" />
              <mxPoint x="-2980" y="430" />
            </Array>
            <mxPoint as="offset" />
          </mxGeometry>
        </mxCell>
        <mxCell id="cXEcaTY2lwT7MXvua-dQ-230" value="Login Screen" style="rounded=1;whiteSpace=wrap;html=1;shadow=1;strokeColor=#000000;align=center;fillColor=#FFFFFF;" vertex="1" parent="1">
          <mxGeometry x="-2880" y="550" width="120" height="60" as="geometry" />
        </mxCell>
        <mxCell id="cXEcaTY2lwT7MXvua-dQ-238" style="edgeStyle=orthogonalEdgeStyle;rounded=0;orthogonalLoop=1;jettySize=auto;html=1;exitX=1;exitY=0.25;exitDx=0;exitDy=0;entryX=0;entryY=0.5;entryDx=0;entryDy=0;startArrow=none;startFill=0;endArrow=block;endFill=1;" edge="1" parent="1" source="cXEcaTY2lwT7MXvua-dQ-237" target="cXEcaTY2lwT7MXvua-dQ-224">
          <mxGeometry relative="1" as="geometry">
            <Array as="points">
              <mxPoint x="-2880" y="145" />
            </Array>
          </mxGeometry>
        </mxCell>
        <mxCell id="cXEcaTY2lwT7MXvua-dQ-240" value="&amp;nbsp; [Auth Token Not Found]&amp;nbsp;&amp;nbsp;&lt;br&gt;Redirect to App Login" style="edgeLabel;html=1;align=center;verticalAlign=middle;resizable=0;points=[];" vertex="1" connectable="0" parent="cXEcaTY2lwT7MXvua-dQ-238">
          <mxGeometry x="-0.2021" y="1" relative="1" as="geometry">
            <mxPoint x="30" y="1" as="offset" />
          </mxGeometry>
        </mxCell>
        <mxCell id="cXEcaTY2lwT7MXvua-dQ-249" value="&amp;nbsp; [Auth Token Found]&amp;nbsp;&amp;nbsp;&lt;br&gt;Request Verification" style="edgeStyle=orthogonalEdgeStyle;rounded=0;orthogonalLoop=1;jettySize=auto;html=1;exitX=1;exitY=0.75;exitDx=0;exitDy=0;entryX=0;entryY=0.25;entryDx=0;entryDy=0;startArrow=none;startFill=0;endArrow=block;endFill=1;" edge="1" parent="1" source="cXEcaTY2lwT7MXvua-dQ-237" target="cXEcaTY2lwT7MXvua-dQ-226">
          <mxGeometry x="0.3048" relative="1" as="geometry">
            <Array as="points">
              <mxPoint x="-3050" y="175" />
              <mxPoint x="-3050" y="258" />
            </Array>
            <mxPoint as="offset" />
          </mxGeometry>
        </mxCell>
        <mxCell id="cXEcaTY2lwT7MXvua-dQ-237" value="Checking Local Storage" style="rounded=1;whiteSpace=wrap;html=1;shadow=1;strokeColor=#000000;align=center;fillColor=#FFFFFF;" vertex="1" parent="1">
          <mxGeometry x="-3200" y="130" width="120" height="60" as="geometry" />
        </mxCell>
        <mxCell id="cXEcaTY2lwT7MXvua-dQ-244" value="Store Session Cookie" style="edgeStyle=orthogonalEdgeStyle;rounded=0;orthogonalLoop=1;jettySize=auto;html=1;exitX=0.5;exitY=0;exitDx=0;exitDy=0;entryX=0.5;entryY=1;entryDx=0;entryDy=0;startArrow=none;startFill=0;endArrow=block;endFill=1;" edge="1" parent="1" source="cXEcaTY2lwT7MXvua-dQ-241" target="cXEcaTY2lwT7MXvua-dQ-237">
          <mxGeometry relative="1" as="geometry" />
        </mxCell>
        <mxCell id="cXEcaTY2lwT7MXvua-dQ-245" style="edgeStyle=orthogonalEdgeStyle;rounded=0;orthogonalLoop=1;jettySize=auto;html=1;exitX=0;exitY=0.5;exitDx=0;exitDy=0;startArrow=none;startFill=0;endArrow=block;endFill=1;entryX=1;entryY=0.5;entryDx=0;entryDy=0;" edge="1" parent="1" source="cXEcaTY2lwT7MXvua-dQ-241" target="cXEcaTY2lwT7MXvua-dQ-222">
          <mxGeometry relative="1" as="geometry">
            <mxPoint x="-3410" y="300.33333333333337" as="targetPoint" />
          </mxGeometry>
        </mxCell>
        <mxCell id="cXEcaTY2lwT7MXvua-dQ-246" value="&amp;nbsp;[Login Complete]&lt;br&gt;Redirect to Home Page" style="edgeLabel;html=1;align=center;verticalAlign=middle;resizable=0;points=[];" vertex="1" connectable="0" parent="cXEcaTY2lwT7MXvua-dQ-245">
          <mxGeometry x="0.1884" y="3" relative="1" as="geometry">
            <mxPoint x="20" y="-3" as="offset" />
          </mxGeometry>
        </mxCell>
        <mxCell id="cXEcaTY2lwT7MXvua-dQ-241" value="User Logged In" style="rounded=1;whiteSpace=wrap;html=1;shadow=1;strokeColor=#000000;align=center;fillColor=#FFFFFF;" vertex="1" parent="1">
          <mxGeometry x="-3200" y="275" width="120" height="60" as="geometry" />
        </mxCell>
        <mxCell id="cXEcaTY2lwT7MXvua-dQ-253" value="Tech Stack" style="rounded=0;whiteSpace=wrap;html=1;shadow=0;verticalAlign=top;spacing=20;fontStyle=1;dashed=1;align=left;" vertex="1" parent="1">
          <mxGeometry x="-1120" y="-690" width="260" height="210" as="geometry" />
        </mxCell>
        <mxCell id="cXEcaTY2lwT7MXvua-dQ-254" value="&lt;b&gt;Flutter&lt;/b&gt;&lt;br&gt;(Mobile and Web Applications)" style="rounded=0;whiteSpace=wrap;html=1;shadow=1;strokeColor=#6c8ebf;fillColor=#dae8fc;align=center;" vertex="1" parent="1">
          <mxGeometry x="-1090" y="-630" width="195" height="60" as="geometry" />
        </mxCell>
        <mxCell id="cXEcaTY2lwT7MXvua-dQ-255" value="&lt;b&gt;Firebase&lt;/b&gt;&lt;br&gt;(Authentication and Data Storage)" style="rounded=0;whiteSpace=wrap;html=1;shadow=1;strokeColor=#82b366;fillColor=#d5e8d4;align=center;" vertex="1" parent="1">
          <mxGeometry x="-1090" y="-567" width="195" height="60" as="geometry" />
        </mxCell>
        <mxCell id="cXEcaTY2lwT7MXvua-dQ-256" value="Asking and Answering Questions" style="rounded=0;whiteSpace=wrap;html=1;shadow=0;verticalAlign=top;spacing=20;fontStyle=1;dashed=1;align=left;" vertex="1" parent="1">
          <mxGeometry x="-600" y="-740" width="480" height="550" as="geometry" />
        </mxCell>
        <mxCell id="cXEcaTY2lwT7MXvua-dQ-269" value="" style="group" vertex="1" connectable="0" parent="1">
          <mxGeometry x="-270" y="-670" width="120" height="450" as="geometry" />
        </mxCell>
        <mxCell id="cXEcaTY2lwT7MXvua-dQ-260" value="" style="rounded=0;whiteSpace=wrap;html=1;shadow=0;strokeColor=#000000;align=center;fillColor=none;" vertex="1" parent="cXEcaTY2lwT7MXvua-dQ-269">
          <mxGeometry x="55" y="71.05263157894737" width="10" height="378.94736842105266" as="geometry" />
        </mxCell>
        <mxCell id="cXEcaTY2lwT7MXvua-dQ-266" style="edgeStyle=orthogonalEdgeStyle;rounded=0;orthogonalLoop=1;jettySize=auto;html=1;exitX=0.5;exitY=1;exitDx=0;exitDy=0;entryX=0.5;entryY=0;entryDx=0;entryDy=0;dashed=1;startArrow=none;startFill=0;endArrow=none;endFill=0;" edge="1" parent="cXEcaTY2lwT7MXvua-dQ-269" source="cXEcaTY2lwT7MXvua-dQ-261" target="cXEcaTY2lwT7MXvua-dQ-260">
          <mxGeometry relative="1" as="geometry" />
        </mxCell>
        <mxCell id="cXEcaTY2lwT7MXvua-dQ-261" value="System" style="rounded=0;whiteSpace=wrap;html=1;shadow=0;strokeColor=#000000;fillColor=none;align=center;" vertex="1" parent="cXEcaTY2lwT7MXvua-dQ-269">
          <mxGeometry width="120" height="47.36842105263158" as="geometry" />
        </mxCell>
        <mxCell id="cXEcaTY2lwT7MXvua-dQ-270" value="" style="group" vertex="1" connectable="0" parent="1">
          <mxGeometry x="-570" y="-670" width="120" height="450" as="geometry" />
        </mxCell>
        <mxCell id="cXEcaTY2lwT7MXvua-dQ-257" value="" style="rounded=0;whiteSpace=wrap;html=1;shadow=0;strokeColor=#000000;align=center;fillColor=none;" vertex="1" parent="cXEcaTY2lwT7MXvua-dQ-270">
          <mxGeometry x="55" y="71.05263157894737" width="10" height="378.94736842105266" as="geometry" />
        </mxCell>
        <mxCell id="cXEcaTY2lwT7MXvua-dQ-258" value="User" style="rounded=0;whiteSpace=wrap;html=1;shadow=0;strokeColor=#000000;fillColor=none;align=center;" vertex="1" parent="cXEcaTY2lwT7MXvua-dQ-270">
          <mxGeometry width="120" height="47.36842105263158" as="geometry" />
        </mxCell>
        <mxCell id="cXEcaTY2lwT7MXvua-dQ-259" style="edgeStyle=orthogonalEdgeStyle;rounded=0;orthogonalLoop=1;jettySize=auto;html=1;exitX=0.5;exitY=0;exitDx=0;exitDy=0;entryX=0.5;entryY=1;entryDx=0;entryDy=0;startArrow=none;startFill=0;endArrow=none;endFill=0;dashed=1;" edge="1" parent="cXEcaTY2lwT7MXvua-dQ-270" source="cXEcaTY2lwT7MXvua-dQ-257" target="cXEcaTY2lwT7MXvua-dQ-258">
          <mxGeometry relative="1" as="geometry" />
        </mxCell>
        <mxCell id="cXEcaTY2lwT7MXvua-dQ-272" value="&amp;nbsp;Ask a question&amp;nbsp;" style="edgeStyle=orthogonalEdgeStyle;rounded=0;orthogonalLoop=1;jettySize=auto;html=1;startArrow=none;startFill=0;endArrow=block;endFill=1;" edge="1" parent="1">
          <mxGeometry relative="1" as="geometry">
            <mxPoint x="-500" y="-550" as="sourcePoint" />
            <mxPoint x="-220" y="-550" as="targetPoint" />
          </mxGeometry>
        </mxCell>
        <mxCell id="cXEcaTY2lwT7MXvua-dQ-273" value="&amp;nbsp;Read comment on question&amp;nbsp;" style="edgeStyle=orthogonalEdgeStyle;rounded=0;orthogonalLoop=1;jettySize=auto;html=1;startArrow=block;startFill=1;endArrow=none;endFill=0;dashed=1;" edge="1" parent="1">
          <mxGeometry relative="1" as="geometry">
            <mxPoint x="-500" y="-430.24" as="sourcePoint" />
            <mxPoint x="-220" y="-430.24" as="targetPoint" />
          </mxGeometry>
        </mxCell>
        <mxCell id="cXEcaTY2lwT7MXvua-dQ-283" value="&amp;nbsp;Respond to comment&amp;nbsp;" style="edgeStyle=orthogonalEdgeStyle;rounded=0;orthogonalLoop=1;jettySize=auto;html=1;startArrow=none;startFill=0;endArrow=block;endFill=1;" edge="1" parent="1">
          <mxGeometry relative="1" as="geometry">
            <mxPoint x="-500.00000000000045" y="-400.23999999999995" as="sourcePoint" />
            <mxPoint x="-220" y="-400.23999999999995" as="targetPoint" />
          </mxGeometry>
        </mxCell>
        <mxCell id="cXEcaTY2lwT7MXvua-dQ-284" value="&amp;nbsp;Answer another user&#39;s question&amp;nbsp;" style="edgeStyle=orthogonalEdgeStyle;rounded=0;orthogonalLoop=1;jettySize=auto;html=1;startArrow=none;startFill=0;endArrow=block;endFill=1;" edge="1" parent="1">
          <mxGeometry relative="1" as="geometry">
            <mxPoint x="-500.00000000000045" y="-370.24" as="sourcePoint" />
            <mxPoint x="-220" y="-370.24" as="targetPoint" />
          </mxGeometry>
        </mxCell>
        <mxCell id="cXEcaTY2lwT7MXvua-dQ-285" value="&amp;nbsp;Read answer to question&amp;nbsp;" style="edgeStyle=orthogonalEdgeStyle;rounded=0;orthogonalLoop=1;jettySize=auto;html=1;startArrow=block;startFill=1;endArrow=none;endFill=0;dashed=1;" edge="1" parent="1">
          <mxGeometry relative="1" as="geometry">
            <mxPoint x="-500.00000000000045" y="-340.24" as="sourcePoint" />
            <mxPoint x="-220" y="-340.24" as="targetPoint" />
          </mxGeometry>
        </mxCell>
        <mxCell id="cXEcaTY2lwT7MXvua-dQ-286" value="&amp;nbsp;Comment on another user&#39;s question&amp;nbsp;" style="edgeStyle=orthogonalEdgeStyle;rounded=0;orthogonalLoop=1;jettySize=auto;html=1;startArrow=none;startFill=0;endArrow=block;endFill=1;" edge="1" parent="1">
          <mxGeometry relative="1" as="geometry">
            <mxPoint x="-500.00000000000045" y="-460.24" as="sourcePoint" />
            <mxPoint x="-220" y="-460.24" as="targetPoint" />
          </mxGeometry>
        </mxCell>
        <mxCell id="cXEcaTY2lwT7MXvua-dQ-287" value="&amp;nbsp;Comment on an answer&amp;nbsp;" style="edgeStyle=orthogonalEdgeStyle;rounded=0;orthogonalLoop=1;jettySize=auto;html=1;startArrow=none;startFill=0;endArrow=block;endFill=1;" edge="1" parent="1">
          <mxGeometry relative="1" as="geometry">
            <mxPoint x="-500.00000000000045" y="-310.24" as="sourcePoint" />
            <mxPoint x="-220" y="-310.24" as="targetPoint" />
          </mxGeometry>
        </mxCell>
        <mxCell id="cXEcaTY2lwT7MXvua-dQ-288" value="&amp;nbsp;Vote on answer&amp;nbsp;&amp;nbsp;" style="edgeStyle=orthogonalEdgeStyle;rounded=0;orthogonalLoop=1;jettySize=auto;html=1;startArrow=none;startFill=0;endArrow=block;endFill=1;" edge="1" parent="1">
          <mxGeometry relative="1" as="geometry">
            <mxPoint x="-500.00000000000045" y="-280.24" as="sourcePoint" />
            <mxPoint x="-220" y="-280.24" as="targetPoint" />
          </mxGeometry>
        </mxCell>
        <mxCell id="cXEcaTY2lwT7MXvua-dQ-289" value="&amp;nbsp;Vote on another user&#39;s question&amp;nbsp;" style="edgeStyle=orthogonalEdgeStyle;rounded=0;orthogonalLoop=1;jettySize=auto;html=1;startArrow=none;startFill=0;endArrow=block;endFill=1;" edge="1" parent="1">
          <mxGeometry relative="1" as="geometry">
            <mxPoint x="-500.00000000000045" y="-490.24" as="sourcePoint" />
            <mxPoint x="-220" y="-490.24" as="targetPoint" />
          </mxGeometry>
        </mxCell>
        <mxCell id="cXEcaTY2lwT7MXvua-dQ-290" value="&amp;nbsp;Mark answer as correct&amp;nbsp;" style="edgeStyle=orthogonalEdgeStyle;rounded=0;orthogonalLoop=1;jettySize=auto;html=1;startArrow=none;startFill=0;endArrow=block;endFill=1;" edge="1" parent="1">
          <mxGeometry relative="1" as="geometry">
            <mxPoint x="-500.00000000000045" y="-250" as="sourcePoint" />
            <mxPoint x="-220" y="-250" as="targetPoint" />
          </mxGeometry>
        </mxCell>
        <mxCell id="cXEcaTY2lwT7MXvua-dQ-291" value="&amp;nbsp;Read other user&#39;s questions&amp;nbsp;" style="edgeStyle=orthogonalEdgeStyle;rounded=0;orthogonalLoop=1;jettySize=auto;html=1;startArrow=block;startFill=1;endArrow=none;endFill=0;" edge="1" parent="1">
          <mxGeometry relative="1" as="geometry">
            <mxPoint x="-500.00000000000045" y="-520" as="sourcePoint" />
            <mxPoint x="-220" y="-520" as="targetPoint" />
          </mxGeometry>
        </mxCell>
        <mxCell id="cXEcaTY2lwT7MXvua-dQ-292" value="Moderation Workflow" style="rounded=0;whiteSpace=wrap;html=1;shadow=0;verticalAlign=top;spacing=20;fontStyle=1;dashed=1;align=left;" vertex="1" parent="1">
          <mxGeometry x="40" y="-780" width="860" height="440" as="geometry" />
        </mxCell>
        <mxCell id="cXEcaTY2lwT7MXvua-dQ-300" style="edgeStyle=orthogonalEdgeStyle;rounded=0;orthogonalLoop=1;jettySize=auto;html=1;exitX=1;exitY=0.5;exitDx=0;exitDy=0;entryX=0;entryY=0.25;entryDx=0;entryDy=0;startArrow=none;startFill=0;endArrow=block;endFill=1;" edge="1" parent="1" source="cXEcaTY2lwT7MXvua-dQ-293" target="cXEcaTY2lwT7MXvua-dQ-299">
          <mxGeometry relative="1" as="geometry" />
        </mxCell>
        <mxCell id="cXEcaTY2lwT7MXvua-dQ-293" value="" style="ellipse;whiteSpace=wrap;html=1;aspect=fixed;shadow=0;strokeColor=#000000;align=center;fillColor=#000000;" vertex="1" parent="1">
          <mxGeometry x="220" y="-678" width="30" height="30" as="geometry" />
        </mxCell>
        <mxCell id="cXEcaTY2lwT7MXvua-dQ-298" style="edgeStyle=orthogonalEdgeStyle;rounded=0;orthogonalLoop=1;jettySize=auto;html=1;exitX=0;exitY=0;exitDx=100;exitDy=46.5;exitPerimeter=0;entryX=0;entryY=0.5;entryDx=0;entryDy=0;startArrow=none;startFill=0;endArrow=none;endFill=0;dashed=1;" edge="1" parent="1" source="cXEcaTY2lwT7MXvua-dQ-297" target="cXEcaTY2lwT7MXvua-dQ-293">
          <mxGeometry relative="1" as="geometry" />
        </mxCell>
        <mxCell id="cXEcaTY2lwT7MXvua-dQ-297" value="Moderator is logged into the system" style="shape=note;whiteSpace=wrap;html=1;backgroundOutline=1;darkOpacity=0.05;shadow=1;strokeColor=#000000;align=center;size=14;" vertex="1" parent="1">
          <mxGeometry x="70" y="-709" width="100" height="79" as="geometry" />
        </mxCell>
        <mxCell id="cXEcaTY2lwT7MXvua-dQ-303" value="&amp;nbsp;Does the post comply&amp;nbsp;&lt;br&gt;with system policies?&amp;nbsp;" style="edgeStyle=orthogonalEdgeStyle;rounded=0;orthogonalLoop=1;jettySize=auto;html=1;exitX=1;exitY=0.5;exitDx=0;exitDy=0;startArrow=none;startFill=0;endArrow=block;endFill=1;entryX=0;entryY=0.5;entryDx=0;entryDy=0;" edge="1" parent="1" source="cXEcaTY2lwT7MXvua-dQ-299" target="cXEcaTY2lwT7MXvua-dQ-302">
          <mxGeometry x="-0.1351" relative="1" as="geometry">
            <mxPoint as="offset" />
          </mxGeometry>
        </mxCell>
        <mxCell id="cXEcaTY2lwT7MXvua-dQ-299" value="Read recent posts&lt;br&gt;(questions, answers and comments)" style="rounded=1;whiteSpace=wrap;html=1;shadow=1;strokeColor=#000000;align=center;" vertex="1" parent="1">
          <mxGeometry x="300" y="-689" width="120" height="103" as="geometry" />
        </mxCell>
        <mxCell id="cXEcaTY2lwT7MXvua-dQ-304" value="&amp;nbsp;Yes&amp;nbsp;" style="edgeStyle=orthogonalEdgeStyle;rounded=0;orthogonalLoop=1;jettySize=auto;html=1;exitX=0.5;exitY=0;exitDx=0;exitDy=0;entryX=0.5;entryY=0;entryDx=0;entryDy=0;startArrow=none;startFill=0;endArrow=block;endFill=1;" edge="1" parent="1" source="cXEcaTY2lwT7MXvua-dQ-302" target="cXEcaTY2lwT7MXvua-dQ-299">
          <mxGeometry relative="1" as="geometry">
            <Array as="points">
              <mxPoint x="810" y="-730" />
              <mxPoint x="360" y="-730" />
            </Array>
          </mxGeometry>
        </mxCell>
        <mxCell id="cXEcaTY2lwT7MXvua-dQ-306" value="&amp;nbsp;No&amp;nbsp;" style="edgeStyle=orthogonalEdgeStyle;rounded=0;orthogonalLoop=1;jettySize=auto;html=1;exitX=0.5;exitY=1;exitDx=0;exitDy=0;entryX=0.5;entryY=0;entryDx=0;entryDy=0;startArrow=none;startFill=0;endArrow=block;endFill=1;" edge="1" parent="1" source="cXEcaTY2lwT7MXvua-dQ-302" target="cXEcaTY2lwT7MXvua-dQ-305">
          <mxGeometry relative="1" as="geometry" />
        </mxCell>
        <mxCell id="cXEcaTY2lwT7MXvua-dQ-302" value="" style="rhombus;whiteSpace=wrap;html=1;shadow=1;strokeColor=#000000;fillColor=#ffffff;align=center;" vertex="1" parent="1">
          <mxGeometry x="790" y="-657.5" width="40" height="40" as="geometry" />
        </mxCell>
        <mxCell id="cXEcaTY2lwT7MXvua-dQ-310" style="edgeStyle=orthogonalEdgeStyle;rounded=0;orthogonalLoop=1;jettySize=auto;html=1;exitX=0;exitY=0.5;exitDx=0;exitDy=0;entryX=1;entryY=0.5;entryDx=0;entryDy=0;startArrow=none;startFill=0;endArrow=block;endFill=1;" edge="1" parent="1" source="cXEcaTY2lwT7MXvua-dQ-305" target="cXEcaTY2lwT7MXvua-dQ-309">
          <mxGeometry relative="1" as="geometry" />
        </mxCell>
        <mxCell id="cXEcaTY2lwT7MXvua-dQ-305" value="Notify user of breach of system policies." style="rounded=1;whiteSpace=wrap;html=1;shadow=1;strokeColor=#000000;align=center;" vertex="1" parent="1">
          <mxGeometry x="750" y="-535" width="120" height="60" as="geometry" />
        </mxCell>
        <mxCell id="cXEcaTY2lwT7MXvua-dQ-313" value="&amp;nbsp;Does the user resolve&amp;nbsp;&lt;br&gt;the issue?" style="edgeStyle=orthogonalEdgeStyle;rounded=0;orthogonalLoop=1;jettySize=auto;html=1;exitX=0;exitY=0.5;exitDx=0;exitDy=0;entryX=1;entryY=0.5;entryDx=0;entryDy=0;startArrow=none;startFill=0;endArrow=block;endFill=1;" edge="1" parent="1" source="cXEcaTY2lwT7MXvua-dQ-309" target="cXEcaTY2lwT7MXvua-dQ-312">
          <mxGeometry relative="1" as="geometry" />
        </mxCell>
        <mxCell id="cXEcaTY2lwT7MXvua-dQ-309" value="Wait for user to resolve issue." style="rounded=1;whiteSpace=wrap;html=1;shadow=1;strokeColor=#000000;align=center;" vertex="1" parent="1">
          <mxGeometry x="570" y="-535" width="120" height="60" as="geometry" />
        </mxCell>
        <mxCell id="cXEcaTY2lwT7MXvua-dQ-314" value="&amp;nbsp;Yes&amp;nbsp;" style="edgeStyle=orthogonalEdgeStyle;rounded=0;orthogonalLoop=1;jettySize=auto;html=1;exitX=0.5;exitY=0;exitDx=0;exitDy=0;entryX=0.5;entryY=1;entryDx=0;entryDy=0;startArrow=none;startFill=0;endArrow=block;endFill=1;" edge="1" parent="1" source="cXEcaTY2lwT7MXvua-dQ-312" target="cXEcaTY2lwT7MXvua-dQ-299">
          <mxGeometry relative="1" as="geometry" />
        </mxCell>
        <mxCell id="cXEcaTY2lwT7MXvua-dQ-317" value="&amp;nbsp;No&amp;nbsp;" style="edgeStyle=orthogonalEdgeStyle;rounded=0;orthogonalLoop=1;jettySize=auto;html=1;exitX=0.5;exitY=1;exitDx=0;exitDy=0;entryX=0.5;entryY=0;entryDx=0;entryDy=0;startArrow=none;startFill=0;endArrow=block;endFill=1;" edge="1" parent="1" source="cXEcaTY2lwT7MXvua-dQ-312" target="cXEcaTY2lwT7MXvua-dQ-315">
          <mxGeometry relative="1" as="geometry" />
        </mxCell>
        <mxCell id="cXEcaTY2lwT7MXvua-dQ-312" value="" style="rhombus;whiteSpace=wrap;html=1;shadow=1;strokeColor=#000000;fillColor=#ffffff;align=center;" vertex="1" parent="1">
          <mxGeometry x="340" y="-525" width="40" height="40" as="geometry" />
        </mxCell>
        <mxCell id="cXEcaTY2lwT7MXvua-dQ-319" style="edgeStyle=orthogonalEdgeStyle;rounded=0;orthogonalLoop=1;jettySize=auto;html=1;exitX=0;exitY=0.5;exitDx=0;exitDy=0;entryX=0.5;entryY=1;entryDx=0;entryDy=0;startArrow=none;startFill=0;endArrow=block;endFill=1;" edge="1" parent="1" source="cXEcaTY2lwT7MXvua-dQ-315" target="cXEcaTY2lwT7MXvua-dQ-318">
          <mxGeometry relative="1" as="geometry" />
        </mxCell>
        <mxCell id="cXEcaTY2lwT7MXvua-dQ-315" value="Flag User as &lt;br&gt;Non-Compliant &lt;br&gt;or&amp;nbsp;Ban user" style="rounded=1;whiteSpace=wrap;html=1;shadow=1;strokeColor=#000000;align=center;" vertex="1" parent="1">
          <mxGeometry x="300" y="-430" width="120" height="60" as="geometry" />
        </mxCell>
        <mxCell id="cXEcaTY2lwT7MXvua-dQ-320" style="edgeStyle=orthogonalEdgeStyle;rounded=0;orthogonalLoop=1;jettySize=auto;html=1;exitX=0.5;exitY=0;exitDx=0;exitDy=0;entryX=0;entryY=0.75;entryDx=0;entryDy=0;startArrow=none;startFill=0;endArrow=block;endFill=1;" edge="1" parent="1" source="cXEcaTY2lwT7MXvua-dQ-318" target="cXEcaTY2lwT7MXvua-dQ-299">
          <mxGeometry relative="1" as="geometry" />
        </mxCell>
        <mxCell id="cXEcaTY2lwT7MXvua-dQ-318" value="Delete Post" style="rounded=1;whiteSpace=wrap;html=1;shadow=1;strokeColor=#000000;align=center;" vertex="1" parent="1">
          <mxGeometry x="175" y="-535" width="120" height="60" as="geometry" />
        </mxCell>
        <mxCell id="cXEcaTY2lwT7MXvua-dQ-321" value="Student Workflow" style="rounded=0;whiteSpace=wrap;html=1;shadow=0;verticalAlign=top;spacing=20;fontStyle=1;dashed=1;align=left;" vertex="1" parent="1">
          <mxGeometry x="-242.5" y="-2360" width="1032.5" height="960" as="geometry" />
        </mxCell>
        <mxCell id="cXEcaTY2lwT7MXvua-dQ-334" style="edgeStyle=orthogonalEdgeStyle;rounded=0;orthogonalLoop=1;jettySize=auto;html=1;exitX=0.5;exitY=1;exitDx=0;exitDy=0;entryX=0.5;entryY=0;entryDx=0;entryDy=0;startArrow=none;startFill=0;endArrow=block;endFill=1;" edge="1" parent="1" source="cXEcaTY2lwT7MXvua-dQ-322" target="cXEcaTY2lwT7MXvua-dQ-333">
          <mxGeometry relative="1" as="geometry" />
        </mxCell>
        <mxCell id="cXEcaTY2lwT7MXvua-dQ-322" value="" style="ellipse;whiteSpace=wrap;html=1;aspect=fixed;shadow=0;strokeColor=#000000;align=center;fillColor=#000000;" vertex="1" parent="1">
          <mxGeometry x="340" y="-2300" width="30" height="30" as="geometry" />
        </mxCell>
        <mxCell id="cXEcaTY2lwT7MXvua-dQ-384" style="edgeStyle=orthogonalEdgeStyle;rounded=0;orthogonalLoop=1;jettySize=auto;html=1;exitX=0;exitY=0;exitDx=100;exitDy=47.5;exitPerimeter=0;entryX=0;entryY=0.5;entryDx=0;entryDy=0;startArrow=none;startFill=0;endArrow=none;endFill=0;dashed=1;" edge="1" parent="1" source="cXEcaTY2lwT7MXvua-dQ-323" target="cXEcaTY2lwT7MXvua-dQ-322">
          <mxGeometry relative="1" as="geometry" />
        </mxCell>
        <mxCell id="cXEcaTY2lwT7MXvua-dQ-323" value="Student is &lt;br&gt;logged into the system" style="shape=note;whiteSpace=wrap;html=1;backgroundOutline=1;darkOpacity=0.05;shadow=1;strokeColor=#000000;align=center;size=14;" vertex="1" parent="1">
          <mxGeometry x="100" y="-2332.75" width="100" height="95.5" as="geometry" />
        </mxCell>
        <mxCell id="cXEcaTY2lwT7MXvua-dQ-357" style="edgeStyle=orthogonalEdgeStyle;rounded=0;orthogonalLoop=1;jettySize=auto;html=1;exitX=0.5;exitY=1;exitDx=0;exitDy=0;entryX=0.5;entryY=0;entryDx=0;entryDy=0;startArrow=none;startFill=0;endArrow=block;endFill=1;" edge="1" parent="1" source="cXEcaTY2lwT7MXvua-dQ-326" target="cXEcaTY2lwT7MXvua-dQ-328">
          <mxGeometry relative="1" as="geometry" />
        </mxCell>
        <mxCell id="cXEcaTY2lwT7MXvua-dQ-326" value="Filter or search for course (in sidebar)" style="rounded=1;whiteSpace=wrap;html=1;shadow=1;strokeColor=#000000;fillColor=#ffffff;align=center;" vertex="1" parent="1">
          <mxGeometry x="-50" y="-1930" width="120" height="60" as="geometry" />
        </mxCell>
        <mxCell id="cXEcaTY2lwT7MXvua-dQ-358" style="edgeStyle=orthogonalEdgeStyle;rounded=0;orthogonalLoop=1;jettySize=auto;html=1;exitX=0.5;exitY=1;exitDx=0;exitDy=0;entryX=0.5;entryY=0;entryDx=0;entryDy=0;startArrow=none;startFill=0;endArrow=block;endFill=1;" edge="1" parent="1" source="cXEcaTY2lwT7MXvua-dQ-328" target="cXEcaTY2lwT7MXvua-dQ-330">
          <mxGeometry relative="1" as="geometry" />
        </mxCell>
        <mxCell id="cXEcaTY2lwT7MXvua-dQ-328" value="Filter or search for module (in sidebar)" style="rounded=1;whiteSpace=wrap;html=1;shadow=1;strokeColor=#000000;fillColor=#ffffff;align=center;" vertex="1" parent="1">
          <mxGeometry x="-50" y="-1820" width="120" height="60" as="geometry" />
        </mxCell>
        <mxCell id="cXEcaTY2lwT7MXvua-dQ-368" style="edgeStyle=orthogonalEdgeStyle;rounded=0;orthogonalLoop=1;jettySize=auto;html=1;exitX=1;exitY=0.5;exitDx=0;exitDy=0;entryX=0.5;entryY=1;entryDx=0;entryDy=0;startArrow=none;startFill=0;endArrow=block;endFill=1;" edge="1" parent="1" source="cXEcaTY2lwT7MXvua-dQ-330" target="cXEcaTY2lwT7MXvua-dQ-359">
          <mxGeometry relative="1" as="geometry" />
        </mxCell>
        <mxCell id="cXEcaTY2lwT7MXvua-dQ-330" value="Browse available questions in module" style="rounded=1;whiteSpace=wrap;html=1;shadow=1;strokeColor=#000000;fillColor=#ffffff;align=center;" vertex="1" parent="1">
          <mxGeometry x="-50" y="-1714" width="120" height="60" as="geometry" />
        </mxCell>
        <mxCell id="cXEcaTY2lwT7MXvua-dQ-413" style="edgeStyle=orthogonalEdgeStyle;rounded=0;orthogonalLoop=1;jettySize=auto;html=1;exitX=0;exitY=0.5;exitDx=0;exitDy=0;entryX=0.5;entryY=0;entryDx=0;entryDy=0;startArrow=none;startFill=0;endArrow=block;endFill=1;" edge="1" parent="1" source="cXEcaTY2lwT7MXvua-dQ-331" target="cXEcaTY2lwT7MXvua-dQ-410">
          <mxGeometry relative="1" as="geometry" />
        </mxCell>
        <mxCell id="cXEcaTY2lwT7MXvua-dQ-331" value="Open &lt;br&gt;Sidebar" style="rounded=1;whiteSpace=wrap;html=1;shadow=1;strokeColor=#000000;fillColor=#ffffff;align=center;" vertex="1" parent="1">
          <mxGeometry x="-50" y="-2067" width="120" height="60" as="geometry" />
        </mxCell>
        <mxCell id="cXEcaTY2lwT7MXvua-dQ-336" style="edgeStyle=orthogonalEdgeStyle;rounded=0;orthogonalLoop=1;jettySize=auto;html=1;exitX=0.5;exitY=1;exitDx=0;exitDy=0;entryX=0.5;entryY=0;entryDx=0;entryDy=0;startArrow=none;startFill=0;endArrow=block;endFill=1;" edge="1" parent="1" source="cXEcaTY2lwT7MXvua-dQ-333" target="cXEcaTY2lwT7MXvua-dQ-335">
          <mxGeometry relative="1" as="geometry" />
        </mxCell>
        <mxCell id="cXEcaTY2lwT7MXvua-dQ-333" value="View &lt;br&gt;Home Page" style="rounded=1;whiteSpace=wrap;html=1;shadow=1;strokeColor=#000000;fillColor=#ffffff;align=center;" vertex="1" parent="1">
          <mxGeometry x="295" y="-2221" width="120" height="60" as="geometry" />
        </mxCell>
        <mxCell id="cXEcaTY2lwT7MXvua-dQ-335" value="" style="rounded=0;whiteSpace=wrap;html=1;shadow=0;strokeColor=#000000;align=center;fillColor=#000000;" vertex="1" parent="1">
          <mxGeometry x="-50" y="-2110" width="810" height="10" as="geometry" />
        </mxCell>
        <mxCell id="cXEcaTY2lwT7MXvua-dQ-353" style="edgeStyle=orthogonalEdgeStyle;rounded=0;orthogonalLoop=1;jettySize=auto;html=1;entryX=0.5;entryY=0;entryDx=0;entryDy=0;startArrow=none;startFill=0;endArrow=block;endFill=1;exitX=0.074;exitY=0.942;exitDx=0;exitDy=0;exitPerimeter=0;" edge="1" parent="1" source="cXEcaTY2lwT7MXvua-dQ-335">
          <mxGeometry relative="1" as="geometry">
            <mxPoint x="9.859999999999843" y="-2097.29" as="sourcePoint" />
            <mxPoint x="9.96999999999997" y="-2067" as="targetPoint" />
          </mxGeometry>
        </mxCell>
        <mxCell id="cXEcaTY2lwT7MXvua-dQ-390" style="edgeStyle=orthogonalEdgeStyle;rounded=0;orthogonalLoop=1;jettySize=auto;html=1;exitX=1;exitY=0.5;exitDx=0;exitDy=0;entryX=0.083;entryY=0.079;entryDx=0;entryDy=0;startArrow=none;startFill=0;endArrow=block;endFill=1;entryPerimeter=0;" edge="1" parent="1" source="cXEcaTY2lwT7MXvua-dQ-359" target="cXEcaTY2lwT7MXvua-dQ-369">
          <mxGeometry relative="1" as="geometry" />
        </mxCell>
        <mxCell id="cXEcaTY2lwT7MXvua-dQ-359" value="Read Question" style="rounded=1;whiteSpace=wrap;html=1;shadow=1;strokeColor=#000000;fillColor=#ffffff;align=center;" vertex="1" parent="1">
          <mxGeometry x="123" y="-1820" width="120" height="60" as="geometry" />
        </mxCell>
        <mxCell id="cXEcaTY2lwT7MXvua-dQ-365" value="Comment &lt;br&gt;on Question" style="rounded=1;whiteSpace=wrap;html=1;shadow=1;strokeColor=#000000;fillColor=#ffffff;align=center;" vertex="1" parent="1">
          <mxGeometry x="340.28" y="-1660" width="120" height="60" as="geometry" />
        </mxCell>
        <mxCell id="cXEcaTY2lwT7MXvua-dQ-366" value="Vote &lt;br&gt;on Question&lt;br&gt;(Other Users)" style="rounded=1;whiteSpace=wrap;html=1;shadow=1;strokeColor=#000000;fillColor=#ffffff;align=center;" vertex="1" parent="1">
          <mxGeometry x="340.28" y="-1580" width="120" height="60" as="geometry" />
        </mxCell>
        <mxCell id="cXEcaTY2lwT7MXvua-dQ-369" value="" style="rounded=0;whiteSpace=wrap;html=1;shadow=0;strokeColor=#000000;align=center;fillColor=#000000;" vertex="1" parent="1">
          <mxGeometry x="285" y="-1820" width="10" height="380" as="geometry" />
        </mxCell>
        <mxCell id="cXEcaTY2lwT7MXvua-dQ-396" style="edgeStyle=orthogonalEdgeStyle;rounded=0;orthogonalLoop=1;jettySize=auto;html=1;exitX=1;exitY=0.5;exitDx=0;exitDy=0;entryX=0;entryY=0.5;entryDx=0;entryDy=0;startArrow=none;startFill=0;endArrow=block;endFill=1;" edge="1" parent="1" target="cXEcaTY2lwT7MXvua-dQ-395">
          <mxGeometry relative="1" as="geometry">
            <mxPoint x="533" y="-1710" as="sourcePoint" />
          </mxGeometry>
        </mxCell>
        <mxCell id="cXEcaTY2lwT7MXvua-dQ-372" value="Read Answers" style="rounded=1;whiteSpace=wrap;html=1;shadow=1;strokeColor=#000000;fillColor=#ffffff;align=center;" vertex="1" parent="1">
          <mxGeometry x="340" y="-1820" width="120" height="60" as="geometry" />
        </mxCell>
        <mxCell id="cXEcaTY2lwT7MXvua-dQ-389" style="edgeStyle=orthogonalEdgeStyle;rounded=0;orthogonalLoop=1;jettySize=auto;html=1;exitX=0.5;exitY=1;exitDx=0;exitDy=0;entryX=0.5;entryY=0;entryDx=0;entryDy=0;startArrow=none;startFill=0;endArrow=block;endFill=1;" edge="1" parent="1" source="cXEcaTY2lwT7MXvua-dQ-374" target="cXEcaTY2lwT7MXvua-dQ-359">
          <mxGeometry relative="1" as="geometry">
            <Array as="points">
              <mxPoint x="700" y="-1850" />
              <mxPoint x="183" y="-1850" />
            </Array>
          </mxGeometry>
        </mxCell>
        <mxCell id="cXEcaTY2lwT7MXvua-dQ-374" value="Browse&lt;br&gt;Recent Questions" style="rounded=1;whiteSpace=wrap;html=1;shadow=1;strokeColor=#000000;fillColor=#ffffff;align=center;" vertex="1" parent="1">
          <mxGeometry x="640" y="-2067" width="120" height="60" as="geometry" />
        </mxCell>
        <mxCell id="cXEcaTY2lwT7MXvua-dQ-388" style="edgeStyle=orthogonalEdgeStyle;rounded=0;orthogonalLoop=1;jettySize=auto;html=1;exitX=0.5;exitY=1;exitDx=0;exitDy=0;entryX=0.5;entryY=0;entryDx=0;entryDy=0;startArrow=none;startFill=0;endArrow=block;endFill=1;" edge="1" parent="1" source="cXEcaTY2lwT7MXvua-dQ-375" target="cXEcaTY2lwT7MXvua-dQ-359">
          <mxGeometry relative="1" as="geometry">
            <Array as="points">
              <mxPoint x="528" y="-1850" />
              <mxPoint x="183" y="-1850" />
            </Array>
          </mxGeometry>
        </mxCell>
        <mxCell id="cXEcaTY2lwT7MXvua-dQ-375" value="Browse &lt;br&gt;Questions from&lt;br&gt;Favourite Modules" style="rounded=1;whiteSpace=wrap;html=1;shadow=1;strokeColor=#000000;fillColor=#ffffff;align=center;" vertex="1" parent="1">
          <mxGeometry x="468" y="-2067" width="120" height="60" as="geometry" />
        </mxCell>
        <mxCell id="cXEcaTY2lwT7MXvua-dQ-386" style="edgeStyle=orthogonalEdgeStyle;rounded=0;orthogonalLoop=1;jettySize=auto;html=1;exitX=0.5;exitY=1;exitDx=0;exitDy=0;entryX=0.5;entryY=0;entryDx=0;entryDy=0;startArrow=none;startFill=0;endArrow=block;endFill=1;" edge="1" parent="1" source="cXEcaTY2lwT7MXvua-dQ-376" target="cXEcaTY2lwT7MXvua-dQ-359">
          <mxGeometry relative="1" as="geometry">
            <Array as="points">
              <mxPoint x="355" y="-1850" />
              <mxPoint x="183" y="-1850" />
            </Array>
          </mxGeometry>
        </mxCell>
        <mxCell id="cXEcaTY2lwT7MXvua-dQ-376" value="Browse&lt;br&gt;Favourite Questions" style="rounded=1;whiteSpace=wrap;html=1;shadow=1;strokeColor=#000000;fillColor=#ffffff;align=center;" vertex="1" parent="1">
          <mxGeometry x="295" y="-2067" width="120" height="60" as="geometry" />
        </mxCell>
        <mxCell id="cXEcaTY2lwT7MXvua-dQ-385" style="edgeStyle=orthogonalEdgeStyle;rounded=0;orthogonalLoop=1;jettySize=auto;html=1;exitX=0.5;exitY=1;exitDx=0;exitDy=0;entryX=0.5;entryY=0;entryDx=0;entryDy=0;startArrow=none;startFill=0;endArrow=block;endFill=1;" edge="1" parent="1" source="cXEcaTY2lwT7MXvua-dQ-377" target="cXEcaTY2lwT7MXvua-dQ-359">
          <mxGeometry relative="1" as="geometry" />
        </mxCell>
        <mxCell id="cXEcaTY2lwT7MXvua-dQ-377" value="Post a Question" style="rounded=1;whiteSpace=wrap;html=1;shadow=1;strokeColor=#000000;fillColor=#ffffff;align=center;" vertex="1" parent="1">
          <mxGeometry x="123" y="-1930" width="120" height="60" as="geometry" />
        </mxCell>
        <mxCell id="cXEcaTY2lwT7MXvua-dQ-380" style="edgeStyle=orthogonalEdgeStyle;rounded=0;orthogonalLoop=1;jettySize=auto;html=1;entryX=0.5;entryY=0;entryDx=0;entryDy=0;startArrow=none;startFill=0;endArrow=block;endFill=1;exitX=0.074;exitY=0.942;exitDx=0;exitDy=0;exitPerimeter=0;" edge="1" parent="1">
          <mxGeometry relative="1" as="geometry">
            <mxPoint x="182.90000000000006" y="-2100" as="sourcePoint" />
            <mxPoint x="182.92999999999935" y="-2066.42" as="targetPoint" />
          </mxGeometry>
        </mxCell>
        <mxCell id="cXEcaTY2lwT7MXvua-dQ-381" style="edgeStyle=orthogonalEdgeStyle;rounded=0;orthogonalLoop=1;jettySize=auto;html=1;entryX=0.5;entryY=0;entryDx=0;entryDy=0;startArrow=none;startFill=0;endArrow=block;endFill=1;exitX=0.074;exitY=0.942;exitDx=0;exitDy=0;exitPerimeter=0;" edge="1" parent="1">
          <mxGeometry relative="1" as="geometry">
            <mxPoint x="354.89999999999964" y="-2100" as="sourcePoint" />
            <mxPoint x="354.9299999999994" y="-2066.42" as="targetPoint" />
          </mxGeometry>
        </mxCell>
        <mxCell id="cXEcaTY2lwT7MXvua-dQ-382" style="edgeStyle=orthogonalEdgeStyle;rounded=0;orthogonalLoop=1;jettySize=auto;html=1;entryX=0.5;entryY=0;entryDx=0;entryDy=0;startArrow=none;startFill=0;endArrow=block;endFill=1;exitX=0.074;exitY=0.942;exitDx=0;exitDy=0;exitPerimeter=0;" edge="1" parent="1">
          <mxGeometry relative="1" as="geometry">
            <mxPoint x="527.8999999999996" y="-2100" as="sourcePoint" />
            <mxPoint x="527.9299999999994" y="-2066.42" as="targetPoint" />
          </mxGeometry>
        </mxCell>
        <mxCell id="cXEcaTY2lwT7MXvua-dQ-383" style="edgeStyle=orthogonalEdgeStyle;rounded=0;orthogonalLoop=1;jettySize=auto;html=1;entryX=0.5;entryY=0;entryDx=0;entryDy=0;startArrow=none;startFill=0;endArrow=block;endFill=1;exitX=0.074;exitY=0.942;exitDx=0;exitDy=0;exitPerimeter=0;" edge="1" parent="1">
          <mxGeometry relative="1" as="geometry">
            <mxPoint x="699.8999999999996" y="-2100" as="sourcePoint" />
            <mxPoint x="699.9299999999994" y="-2066.42" as="targetPoint" />
          </mxGeometry>
        </mxCell>
        <mxCell id="cXEcaTY2lwT7MXvua-dQ-391" style="edgeStyle=orthogonalEdgeStyle;rounded=0;orthogonalLoop=1;jettySize=auto;html=1;exitX=0.9;exitY=0.079;exitDx=0;exitDy=0;entryX=0;entryY=0.5;entryDx=0;entryDy=0;startArrow=none;startFill=0;endArrow=block;endFill=1;exitPerimeter=0;" edge="1" parent="1" source="cXEcaTY2lwT7MXvua-dQ-369" target="cXEcaTY2lwT7MXvua-dQ-372">
          <mxGeometry relative="1" as="geometry">
            <mxPoint x="298" y="-1730.14" as="sourcePoint" />
            <mxPoint x="340" y="-1730.14" as="targetPoint" />
          </mxGeometry>
        </mxCell>
        <mxCell id="cXEcaTY2lwT7MXvua-dQ-393" style="edgeStyle=orthogonalEdgeStyle;rounded=0;orthogonalLoop=1;jettySize=auto;html=1;exitX=0.972;exitY=0.134;exitDx=0;exitDy=0;entryX=0;entryY=0.5;entryDx=0;entryDy=0;startArrow=none;startFill=0;endArrow=block;endFill=1;exitPerimeter=0;" edge="1" parent="1">
          <mxGeometry relative="1" as="geometry">
            <mxPoint x="295.2800000000002" y="-1630.18" as="sourcePoint" />
            <mxPoint x="340.55999999999995" y="-1629.8000000000002" as="targetPoint" />
            <Array as="points">
              <mxPoint x="317.55999999999995" y="-1629.66" />
              <mxPoint x="340.55999999999995" y="-1629.66" />
            </Array>
          </mxGeometry>
        </mxCell>
        <mxCell id="cXEcaTY2lwT7MXvua-dQ-394" style="edgeStyle=orthogonalEdgeStyle;rounded=0;orthogonalLoop=1;jettySize=auto;html=1;exitX=0.972;exitY=0.134;exitDx=0;exitDy=0;entryX=0;entryY=0.5;entryDx=0;entryDy=0;startArrow=none;startFill=0;endArrow=block;endFill=1;exitPerimeter=0;" edge="1" parent="1">
          <mxGeometry relative="1" as="geometry">
            <mxPoint x="295.28" y="-1550.18" as="sourcePoint" />
            <mxPoint x="340.5599999999997" y="-1549.8000000000002" as="targetPoint" />
            <Array as="points">
              <mxPoint x="317.55999999999995" y="-1549.66" />
              <mxPoint x="340.55999999999995" y="-1549.66" />
            </Array>
          </mxGeometry>
        </mxCell>
        <mxCell id="cXEcaTY2lwT7MXvua-dQ-395" value="Comment &lt;br&gt;on Answer" style="rounded=1;whiteSpace=wrap;html=1;shadow=1;strokeColor=#000000;fillColor=#ffffff;align=center;" vertex="1" parent="1">
          <mxGeometry x="583" y="-1740" width="120" height="60" as="geometry" />
        </mxCell>
        <mxCell id="cXEcaTY2lwT7MXvua-dQ-409" style="edgeStyle=orthogonalEdgeStyle;rounded=0;orthogonalLoop=1;jettySize=auto;html=1;exitX=1;exitY=0.5;exitDx=0;exitDy=0;entryX=-0.05;entryY=0.789;entryDx=0;entryDy=0;startArrow=none;startFill=0;endArrow=block;endFill=1;entryPerimeter=0;" edge="1" parent="1" source="cXEcaTY2lwT7MXvua-dQ-397" target="cXEcaTY2lwT7MXvua-dQ-401">
          <mxGeometry relative="1" as="geometry" />
        </mxCell>
        <mxCell id="cXEcaTY2lwT7MXvua-dQ-397" value="Post Answer" style="rounded=1;whiteSpace=wrap;html=1;shadow=1;strokeColor=#000000;fillColor=#ffffff;align=center;" vertex="1" parent="1">
          <mxGeometry x="340.28" y="-1500" width="120" height="60" as="geometry" />
        </mxCell>
        <mxCell id="cXEcaTY2lwT7MXvua-dQ-398" style="edgeStyle=orthogonalEdgeStyle;rounded=0;orthogonalLoop=1;jettySize=auto;html=1;exitX=0.972;exitY=0.134;exitDx=0;exitDy=0;entryX=0;entryY=0.5;entryDx=0;entryDy=0;startArrow=none;startFill=0;endArrow=block;endFill=1;exitPerimeter=0;" edge="1" parent="1">
          <mxGeometry relative="1" as="geometry">
            <mxPoint x="295" y="-1470.18" as="sourcePoint" />
            <mxPoint x="340.27999999999975" y="-1469.8000000000002" as="targetPoint" />
            <Array as="points">
              <mxPoint x="317.28" y="-1469.66" />
              <mxPoint x="340.28" y="-1469.66" />
            </Array>
          </mxGeometry>
        </mxCell>
        <mxCell id="cXEcaTY2lwT7MXvua-dQ-399" value="Read Comments &lt;br&gt;on Question" style="rounded=1;whiteSpace=wrap;html=1;shadow=1;strokeColor=#000000;fillColor=#ffffff;align=center;" vertex="1" parent="1">
          <mxGeometry x="340" y="-1740" width="120" height="60" as="geometry" />
        </mxCell>
        <mxCell id="cXEcaTY2lwT7MXvua-dQ-400" style="edgeStyle=orthogonalEdgeStyle;rounded=0;orthogonalLoop=1;jettySize=auto;html=1;exitX=0.972;exitY=0.134;exitDx=0;exitDy=0;entryX=0;entryY=0.5;entryDx=0;entryDy=0;startArrow=none;startFill=0;endArrow=block;endFill=1;exitPerimeter=0;" edge="1" parent="1">
          <mxGeometry relative="1" as="geometry">
            <mxPoint x="295" y="-1710.18" as="sourcePoint" />
            <mxPoint x="340.27999999999975" y="-1709.8000000000002" as="targetPoint" />
            <Array as="points">
              <mxPoint x="317.28" y="-1709.66" />
              <mxPoint x="340.28" y="-1709.66" />
            </Array>
          </mxGeometry>
        </mxCell>
        <mxCell id="cXEcaTY2lwT7MXvua-dQ-401" value="" style="rounded=0;whiteSpace=wrap;html=1;shadow=0;strokeColor=#000000;align=center;fillColor=#000000;" vertex="1" parent="1">
          <mxGeometry x="523" y="-1820" width="10" height="220" as="geometry" />
        </mxCell>
        <mxCell id="cXEcaTY2lwT7MXvua-dQ-402" style="edgeStyle=orthogonalEdgeStyle;rounded=0;orthogonalLoop=1;jettySize=auto;html=1;exitX=1;exitY=0.5;exitDx=0;exitDy=0;entryX=-0.133;entryY=0.137;entryDx=0;entryDy=0;startArrow=none;startFill=0;endArrow=block;endFill=1;entryPerimeter=0;" edge="1" parent="1" target="cXEcaTY2lwT7MXvua-dQ-401">
          <mxGeometry relative="1" as="geometry">
            <mxPoint x="460" y="-1790.1399999999999" as="sourcePoint" />
            <mxPoint x="510" y="-1790.1399999999999" as="targetPoint" />
          </mxGeometry>
        </mxCell>
        <mxCell id="cXEcaTY2lwT7MXvua-dQ-403" style="edgeStyle=orthogonalEdgeStyle;rounded=0;orthogonalLoop=1;jettySize=auto;html=1;exitX=1;exitY=0.5;exitDx=0;exitDy=0;entryX=0;entryY=0.5;entryDx=0;entryDy=0;startArrow=none;startFill=0;endArrow=block;endFill=1;" edge="1" parent="1" target="cXEcaTY2lwT7MXvua-dQ-404">
          <mxGeometry relative="1" as="geometry">
            <mxPoint x="533" y="-1790" as="sourcePoint" />
          </mxGeometry>
        </mxCell>
        <mxCell id="cXEcaTY2lwT7MXvua-dQ-404" value="Read Comments &lt;br&gt;on Answer" style="rounded=1;whiteSpace=wrap;html=1;shadow=1;strokeColor=#000000;fillColor=#ffffff;align=center;" vertex="1" parent="1">
          <mxGeometry x="583" y="-1820" width="120" height="60" as="geometry" />
        </mxCell>
        <mxCell id="cXEcaTY2lwT7MXvua-dQ-405" style="edgeStyle=orthogonalEdgeStyle;rounded=0;orthogonalLoop=1;jettySize=auto;html=1;exitX=1;exitY=0.5;exitDx=0;exitDy=0;entryX=0;entryY=0.5;entryDx=0;entryDy=0;startArrow=none;startFill=0;endArrow=block;endFill=1;" edge="1" parent="1" target="cXEcaTY2lwT7MXvua-dQ-406">
          <mxGeometry relative="1" as="geometry">
            <mxPoint x="533" y="-1630" as="sourcePoint" />
          </mxGeometry>
        </mxCell>
        <mxCell id="cXEcaTY2lwT7MXvua-dQ-406" value="Vote &lt;br&gt;on Answers&lt;br&gt;(Other Users)" style="rounded=1;whiteSpace=wrap;html=1;shadow=1;strokeColor=#000000;fillColor=#ffffff;align=center;" vertex="1" parent="1">
          <mxGeometry x="583" y="-1660" width="120" height="60" as="geometry" />
        </mxCell>
        <mxCell id="cXEcaTY2lwT7MXvua-dQ-408" style="edgeStyle=orthogonalEdgeStyle;rounded=0;orthogonalLoop=1;jettySize=auto;html=1;exitX=0.5;exitY=1;exitDx=0;exitDy=0;entryX=0.5;entryY=0;entryDx=0;entryDy=0;startArrow=none;startFill=0;endArrow=block;endFill=1;" edge="1" parent="1" source="cXEcaTY2lwT7MXvua-dQ-407" target="cXEcaTY2lwT7MXvua-dQ-377">
          <mxGeometry relative="1" as="geometry" />
        </mxCell>
        <mxCell id="cXEcaTY2lwT7MXvua-dQ-407" value="Open &lt;br&gt;Add Question Page" style="rounded=1;whiteSpace=wrap;html=1;shadow=1;strokeColor=#000000;fillColor=#ffffff;align=center;" vertex="1" parent="1">
          <mxGeometry x="123" y="-2067" width="120" height="60" as="geometry" />
        </mxCell>
        <mxCell id="cXEcaTY2lwT7MXvua-dQ-410" value="" style="rounded=0;whiteSpace=wrap;html=1;shadow=0;strokeColor=#000000;align=center;fillColor=#000000;" vertex="1" parent="1">
          <mxGeometry x="-210" y="-1977" width="270" height="10" as="geometry" />
        </mxCell>
        <mxCell id="cXEcaTY2lwT7MXvua-dQ-412" style="edgeStyle=orthogonalEdgeStyle;rounded=0;orthogonalLoop=1;jettySize=auto;html=1;exitX=0.811;exitY=0.5;exitDx=0;exitDy=0;startArrow=none;startFill=0;endArrow=block;endFill=1;exitPerimeter=0;" edge="1" parent="1" source="cXEcaTY2lwT7MXvua-dQ-410">
          <mxGeometry relative="1" as="geometry">
            <mxPoint x="9.55" y="-1960" as="sourcePoint" />
            <mxPoint x="9" y="-1930" as="targetPoint" />
          </mxGeometry>
        </mxCell>
        <mxCell id="cXEcaTY2lwT7MXvua-dQ-419" style="edgeStyle=orthogonalEdgeStyle;rounded=0;orthogonalLoop=1;jettySize=auto;html=1;exitX=0.5;exitY=1;exitDx=0;exitDy=0;startArrow=none;startFill=0;endArrow=block;endFill=1;entryX=0.5;entryY=0;entryDx=0;entryDy=0;" edge="1" parent="1" source="cXEcaTY2lwT7MXvua-dQ-414" target="cXEcaTY2lwT7MXvua-dQ-420">
          <mxGeometry relative="1" as="geometry">
            <mxPoint x="-150" y="-1800" as="targetPoint" />
          </mxGeometry>
        </mxCell>
        <mxCell id="cXEcaTY2lwT7MXvua-dQ-414" value="View &lt;br&gt;Profile Page" style="rounded=1;whiteSpace=wrap;html=1;shadow=1;strokeColor=#000000;fillColor=#ffffff;align=center;" vertex="1" parent="1">
          <mxGeometry x="-210" y="-1930" width="120" height="60" as="geometry" />
        </mxCell>
        <mxCell id="cXEcaTY2lwT7MXvua-dQ-415" style="edgeStyle=orthogonalEdgeStyle;rounded=0;orthogonalLoop=1;jettySize=auto;html=1;startArrow=none;startFill=0;endArrow=block;endFill=1;" edge="1" parent="1">
          <mxGeometry relative="1" as="geometry">
            <mxPoint x="-150" y="-1972" as="sourcePoint" />
            <mxPoint x="-149.85" y="-1930" as="targetPoint" />
            <Array as="points">
              <mxPoint x="-149.85" y="-1955" />
              <mxPoint x="-149.85" y="-1955" />
            </Array>
          </mxGeometry>
        </mxCell>
        <mxCell id="cXEcaTY2lwT7MXvua-dQ-416" value="" style="group" vertex="1" connectable="0" parent="1">
          <mxGeometry x="-170" y="-1704" width="40" height="40" as="geometry" />
        </mxCell>
        <mxCell id="cXEcaTY2lwT7MXvua-dQ-417" value="" style="ellipse;whiteSpace=wrap;html=1;aspect=fixed;shadow=0;strokeColor=#000000;align=center;fillColor=#000000;" vertex="1" parent="cXEcaTY2lwT7MXvua-dQ-416">
          <mxGeometry x="5" y="5" width="30" height="30" as="geometry" />
        </mxCell>
        <mxCell id="cXEcaTY2lwT7MXvua-dQ-418" value="" style="ellipse;whiteSpace=wrap;html=1;aspect=fixed;shadow=0;strokeColor=#000000;fillColor=none;align=center;" vertex="1" parent="1">
          <mxGeometry x="-170" y="-1704" width="40" height="40" as="geometry" />
        </mxCell>
        <mxCell id="cXEcaTY2lwT7MXvua-dQ-421" style="edgeStyle=orthogonalEdgeStyle;rounded=0;orthogonalLoop=1;jettySize=auto;html=1;exitX=0.5;exitY=1;exitDx=0;exitDy=0;startArrow=none;startFill=0;endArrow=block;endFill=1;entryX=0.5;entryY=0;entryDx=0;entryDy=0;" edge="1" parent="1" source="cXEcaTY2lwT7MXvua-dQ-420" target="cXEcaTY2lwT7MXvua-dQ-418">
          <mxGeometry relative="1" as="geometry">
            <mxPoint x="-150" y="-1710" as="targetPoint" />
          </mxGeometry>
        </mxCell>
        <mxCell id="cXEcaTY2lwT7MXvua-dQ-420" value="Log Out" style="rounded=1;whiteSpace=wrap;html=1;shadow=1;strokeColor=#000000;fillColor=#ffffff;align=center;" vertex="1" parent="1">
          <mxGeometry x="-210" y="-1820" width="120" height="60" as="geometry" />
        </mxCell>
        <mxCell id="cXEcaTY2lwT7MXvua-dQ-422" value="System Modules and Components" style="rounded=0;whiteSpace=wrap;html=1;shadow=0;verticalAlign=top;spacing=20;fontStyle=1;dashed=1;align=left;" vertex="1" parent="1">
          <mxGeometry x="-2355" y="-2710" width="565" height="520" as="geometry" />
        </mxCell>
        <mxCell id="cXEcaTY2lwT7MXvua-dQ-423" value="Post Viewer" style="shape=module;align=left;spacingLeft=20;align=center;verticalAlign=middle;shadow=1;strokeColor=#000000;fillColor=#FFFFFF;" vertex="1" parent="1">
          <mxGeometry x="-2330" y="-2520" width="150" height="50" as="geometry" />
        </mxCell>
        <mxCell id="cXEcaTY2lwT7MXvua-dQ-428" value="Post Editor" style="shape=module;align=left;spacingLeft=20;align=center;verticalAlign=middle;shadow=1;strokeColor=#000000;fillColor=#FFFFFF;" vertex="1" parent="1">
          <mxGeometry x="-2330" y="-2458" width="150" height="50" as="geometry" />
        </mxCell>
        <mxCell id="cXEcaTY2lwT7MXvua-dQ-449" value="«Component»&lt;br&gt;&lt;b&gt;Firebase Database&lt;/b&gt;" style="html=1;dropTarget=0;shadow=1;strokeColor=#000000;fillColor=#FFFFFF;align=center;" vertex="1" parent="1">
          <mxGeometry x="-2000" y="-2520" width="180" height="90" as="geometry" />
        </mxCell>
        <mxCell id="cXEcaTY2lwT7MXvua-dQ-450" value="" style="shape=module;jettyWidth=8;jettyHeight=4;" vertex="1" parent="cXEcaTY2lwT7MXvua-dQ-449">
          <mxGeometry x="1" width="20" height="20" relative="1" as="geometry">
            <mxPoint x="-27" y="7" as="offset" />
          </mxGeometry>
        </mxCell>
        <mxCell id="cXEcaTY2lwT7MXvua-dQ-465" value="Auth" style="edgeStyle=none;rounded=0;orthogonalLoop=1;jettySize=auto;html=1;exitX=0;exitY=0.25;exitDx=0;exitDy=0;startArrow=none;startFill=0;endArrow=circle;endFill=1;startSize=5;endSize=4;" edge="1" parent="1" source="cXEcaTY2lwT7MXvua-dQ-455">
          <mxGeometry relative="1" as="geometry">
            <mxPoint x="-2090" y="-2398" as="targetPoint" />
          </mxGeometry>
        </mxCell>
        <mxCell id="cXEcaTY2lwT7MXvua-dQ-466" value="Token&lt;br&gt;Verification" style="edgeStyle=none;rounded=0;orthogonalLoop=1;jettySize=auto;html=1;exitX=0;exitY=0.75;exitDx=0;exitDy=0;startArrow=none;startFill=0;endArrow=circle;endFill=1;startSize=5;endSize=4;" edge="1" parent="1" source="cXEcaTY2lwT7MXvua-dQ-455">
          <mxGeometry relative="1" as="geometry">
            <mxPoint x="-2090" y="-2353" as="targetPoint" />
            <mxPoint as="offset" />
          </mxGeometry>
        </mxCell>
        <mxCell id="cXEcaTY2lwT7MXvua-dQ-455" value="«Component»&lt;br&gt;&lt;b&gt;Firebase Authentication&lt;/b&gt;" style="html=1;dropTarget=0;shadow=1;strokeColor=#000000;fillColor=#FFFFFF;align=center;" vertex="1" parent="1">
          <mxGeometry x="-2000" y="-2420" width="180" height="90" as="geometry" />
        </mxCell>
        <mxCell id="cXEcaTY2lwT7MXvua-dQ-456" value="" style="shape=module;jettyWidth=8;jettyHeight=4;" vertex="1" parent="cXEcaTY2lwT7MXvua-dQ-455">
          <mxGeometry x="1" width="20" height="20" relative="1" as="geometry">
            <mxPoint x="-27" y="7" as="offset" />
          </mxGeometry>
        </mxCell>
        <mxCell id="cXEcaTY2lwT7MXvua-dQ-471" style="edgeStyle=orthogonalEdgeStyle;rounded=0;orthogonalLoop=1;jettySize=auto;html=1;exitX=0.5;exitY=1;exitDx=0;exitDy=0;entryX=1;entryY=0.5;entryDx=0;entryDy=0;startArrow=none;startFill=0;endArrow=block;endFill=1;startSize=5;endSize=4;dashed=1;" edge="1" parent="1" source="cXEcaTY2lwT7MXvua-dQ-461" target="cXEcaTY2lwT7MXvua-dQ-423">
          <mxGeometry relative="1" as="geometry" />
        </mxCell>
        <mxCell id="cXEcaTY2lwT7MXvua-dQ-472" style="edgeStyle=orthogonalEdgeStyle;rounded=0;orthogonalLoop=1;jettySize=auto;html=1;exitX=0.5;exitY=1;exitDx=0;exitDy=0;entryX=1;entryY=0.5;entryDx=0;entryDy=0;dashed=1;startArrow=none;startFill=0;endArrow=block;endFill=1;startSize=5;endSize=4;" edge="1" parent="1" source="cXEcaTY2lwT7MXvua-dQ-461" target="cXEcaTY2lwT7MXvua-dQ-428">
          <mxGeometry relative="1" as="geometry" />
        </mxCell>
        <mxCell id="cXEcaTY2lwT7MXvua-dQ-473" style="edgeStyle=orthogonalEdgeStyle;rounded=0;orthogonalLoop=1;jettySize=auto;html=1;exitX=0.5;exitY=1;exitDx=0;exitDy=0;entryX=1;entryY=0.5;entryDx=0;entryDy=0;dashed=1;startArrow=none;startFill=0;endArrow=block;endFill=1;startSize=5;endSize=4;" edge="1" parent="1" source="cXEcaTY2lwT7MXvua-dQ-461" target="cXEcaTY2lwT7MXvua-dQ-463">
          <mxGeometry relative="1" as="geometry" />
        </mxCell>
        <mxCell id="cXEcaTY2lwT7MXvua-dQ-480" style="edgeStyle=orthogonalEdgeStyle;rounded=0;orthogonalLoop=1;jettySize=auto;html=1;exitX=0.5;exitY=1;exitDx=0;exitDy=0;entryX=1;entryY=0.5;entryDx=0;entryDy=0;dashed=1;startArrow=none;startFill=0;endArrow=block;endFill=1;startSize=5;endSize=4;" edge="1" parent="1" source="cXEcaTY2lwT7MXvua-dQ-461" target="cXEcaTY2lwT7MXvua-dQ-479">
          <mxGeometry relative="1" as="geometry" />
        </mxCell>
        <mxCell id="cXEcaTY2lwT7MXvua-dQ-482" style="edgeStyle=orthogonalEdgeStyle;rounded=0;orthogonalLoop=1;jettySize=auto;html=1;exitX=0.5;exitY=1;exitDx=0;exitDy=0;entryX=1;entryY=0.5;entryDx=0;entryDy=0;dashed=1;startArrow=none;startFill=0;endArrow=block;endFill=1;startSize=5;endSize=4;" edge="1" parent="1" source="cXEcaTY2lwT7MXvua-dQ-461" target="cXEcaTY2lwT7MXvua-dQ-481">
          <mxGeometry relative="1" as="geometry" />
        </mxCell>
        <mxCell id="cXEcaTY2lwT7MXvua-dQ-461" value="«Component»&lt;br&gt;&lt;b&gt;Client Application&lt;/b&gt;" style="html=1;dropTarget=0;shadow=1;strokeColor=#000000;fillColor=#FFFFFF;align=center;" vertex="1" parent="1">
          <mxGeometry x="-2240" y="-2641" width="180" height="90" as="geometry" />
        </mxCell>
        <mxCell id="cXEcaTY2lwT7MXvua-dQ-462" value="" style="shape=module;jettyWidth=8;jettyHeight=4;" vertex="1" parent="cXEcaTY2lwT7MXvua-dQ-461">
          <mxGeometry x="1" width="20" height="20" relative="1" as="geometry">
            <mxPoint x="-27" y="7" as="offset" />
          </mxGeometry>
        </mxCell>
        <mxCell id="cXEcaTY2lwT7MXvua-dQ-463" value="Navigation" style="shape=module;align=left;spacingLeft=20;align=center;verticalAlign=middle;shadow=1;strokeColor=#000000;fillColor=#FFFFFF;" vertex="1" parent="1">
          <mxGeometry x="-2330" y="-2395" width="150" height="50" as="geometry" />
        </mxCell>
        <mxCell id="cXEcaTY2lwT7MXvua-dQ-474" style="edgeStyle=orthogonalEdgeStyle;rounded=0;orthogonalLoop=1;jettySize=auto;html=1;exitX=0.75;exitY=1;exitDx=0;exitDy=0;startArrow=none;startFill=0;endArrow=halfCircle;endFill=0;startSize=5;endSize=5;" edge="1" parent="1">
          <mxGeometry relative="1" as="geometry">
            <mxPoint x="-2085" y="-2398" as="targetPoint" />
            <mxPoint x="-2101" y="-2551" as="sourcePoint" />
            <Array as="points">
              <mxPoint x="-2100" y="-2551" />
              <mxPoint x="-2100" y="-2398" />
            </Array>
          </mxGeometry>
        </mxCell>
        <mxCell id="cXEcaTY2lwT7MXvua-dQ-475" style="edgeStyle=orthogonalEdgeStyle;rounded=0;orthogonalLoop=1;jettySize=auto;html=1;exitX=0.75;exitY=1;exitDx=0;exitDy=0;startArrow=none;startFill=0;endArrow=halfCircle;endFill=0;startSize=5;endSize=5;" edge="1" parent="1">
          <mxGeometry relative="1" as="geometry">
            <mxPoint x="-2085" y="-2353" as="targetPoint" />
            <mxPoint x="-2101" y="-2506" as="sourcePoint" />
            <Array as="points">
              <mxPoint x="-2100" y="-2506" />
              <mxPoint x="-2100" y="-2353" />
            </Array>
          </mxGeometry>
        </mxCell>
        <mxCell id="cXEcaTY2lwT7MXvua-dQ-477" style="edgeStyle=orthogonalEdgeStyle;rounded=0;orthogonalLoop=1;jettySize=auto;html=1;startArrow=none;startFill=0;endArrow=halfCircle;endFill=0;startSize=5;endSize=5;" edge="1" parent="1">
          <mxGeometry relative="1" as="geometry">
            <mxPoint x="-2084" y="-2475" as="targetPoint" />
            <mxPoint x="-2099" y="-2550" as="sourcePoint" />
            <Array as="points">
              <mxPoint x="-2100" y="-2550" />
              <mxPoint x="-2100" y="-2475" />
            </Array>
          </mxGeometry>
        </mxCell>
        <mxCell id="cXEcaTY2lwT7MXvua-dQ-478" value="Data&amp;nbsp;&lt;br&gt;Access" style="edgeStyle=none;rounded=0;orthogonalLoop=1;jettySize=auto;html=1;exitX=0;exitY=0.25;exitDx=0;exitDy=0;startArrow=none;startFill=0;endArrow=circle;endFill=1;startSize=5;endSize=4;" edge="1" parent="1">
          <mxGeometry relative="1" as="geometry">
            <mxPoint x="-2090" y="-2475.25" as="targetPoint" />
            <mxPoint x="-2000" y="-2474.75" as="sourcePoint" />
          </mxGeometry>
        </mxCell>
        <mxCell id="cXEcaTY2lwT7MXvua-dQ-479" value="Profile Viewer" style="shape=module;align=left;spacingLeft=20;align=center;verticalAlign=middle;shadow=1;strokeColor=#000000;fillColor=#FFFFFF;" vertex="1" parent="1">
          <mxGeometry x="-2330" y="-2333" width="150" height="50" as="geometry" />
        </mxCell>
        <mxCell id="cXEcaTY2lwT7MXvua-dQ-481" value="Course / Module&#xa;Editor" style="shape=module;align=left;spacingLeft=20;align=center;verticalAlign=middle;shadow=1;strokeColor=#000000;fillColor=#FFFFFF;" vertex="1" parent="1">
          <mxGeometry x="-2330" y="-2271" width="150" height="50" as="geometry" />
        </mxCell>
      </root>
    </mxGraphModel>
  </diagram>
</mxfile>
